<svg width="282" height="282" viewBox="0 0 282 282" fill="none" xmlns="http://www.w3.org/2000/svg">
<path d="M138.232 214.738C177.76 214.738 209.803 182.694 209.803 143.167C209.803 103.64 177.76 71.5967 138.232 71.5967C98.7052 71.5967 66.6619 103.64 66.6619 143.167C66.6619 182.694 98.7052 214.738 138.232 214.738Z" fill="#F73647" stroke="white" style="fill:#F73647;fill:color(display-p3 0.9686 0.2118 0.2784);fill-opacity:1;stroke:white;stroke-opacity:1;" stroke-miterlimit="10"/>
<path d="M144.708 110.215H131.809C129.761 110.215 128.102 111.875 128.102 113.923V115.437C128.102 117.485 129.761 119.145 131.809 119.145H144.708C146.756 119.145 148.416 117.485 148.416 115.437V113.923C148.416 111.875 146.756 110.215 144.708 110.215Z" fill="white" style="fill:white;fill-opacity:1;"/>
<path d="M128.754 127.422H105.803C105.541 127.422 105.306 127.631 105.306 127.918V162.333C105.306 164.317 107.108 165.805 109.066 165.492C113.531 164.787 120.738 163.952 124.054 165.179C128.31 166.745 136.718 171.733 140.217 175.963C140.556 176.38 141.496 176.119 141.496 175.571V156.405" stroke="white" style="stroke:white;stroke-opacity:1;" stroke-width="5" stroke-linecap="round"/>
<path d="M132.879 154.134V138.232C132.879 132.253 137.71 127.422 143.689 127.422H170.662C170.923 127.422 171.158 127.631 171.158 127.918V162.646C171.158 164.604 169.331 166.014 167.451 165.57C162.202 164.291 156.745 164.5 151.679 166.302C149.773 166.98 148.259 167.529 148.259 167.529" stroke="white" style="stroke:white;stroke-opacity:1;" stroke-width="5" stroke-linecap="round"/>
<path d="M118.414 76.7407L118.962 76.584L119.824 79.5084L119.275 79.6651L118.414 76.7407Z" fill="white" style="fill:white;fill-opacity:1;"/>
<path d="M120.999 76.0356C121.234 75.9834 121.443 75.9573 121.651 75.9834C121.86 76.0095 122.043 76.0617 122.226 76.1662C122.409 76.2706 122.539 76.4012 122.67 76.5578C122.8 76.7145 122.879 76.8973 122.931 77.1323C122.983 77.3412 123.009 77.5501 122.957 77.7589C122.905 77.9678 122.853 78.1506 122.748 78.3073C122.644 78.4639 122.513 78.6206 122.33 78.7512C122.148 78.8817 121.965 78.9601 121.73 79.0123L120.529 79.3256L119.771 76.3751L120.999 76.0617V76.0356ZM121.625 78.5162C121.756 78.4901 121.886 78.4378 121.991 78.3595C122.095 78.2812 122.174 78.1767 122.252 78.0723C122.304 77.9678 122.356 77.8373 122.383 77.7067C122.383 77.5762 122.383 77.4195 122.356 77.2889C122.33 77.1323 122.252 77.0017 122.174 76.8973C122.095 76.7928 121.991 76.6884 121.886 76.6362C121.782 76.5578 121.651 76.5317 121.521 76.5056C121.39 76.5056 121.26 76.5056 121.103 76.5317L120.45 76.6884L120.973 78.6989L121.651 78.5162H121.625Z" fill="white" style="fill:white;fill-opacity:1;"/>
<path d="M123.14 75.5132L125.333 75.0693L125.438 75.5393L123.819 75.8788L123.975 76.6621L125.438 76.3749L125.542 76.8449L124.08 77.1321L124.237 77.9154L125.908 77.576L126.012 78.046L123.767 78.516L123.14 75.5393V75.5132Z" fill="white" style="fill:white;fill-opacity:1;"/>
<path d="M127.004 74.7822L127.605 74.6777L129.38 77.4716L128.754 77.5761L127.37 75.3044L126.769 77.8894L126.169 77.9938L127.004 74.7822ZM126.665 76.7666L128.466 76.4794L128.545 76.9494L126.743 77.2366L126.665 76.7666Z" fill="white" style="fill:white;fill-opacity:1;"/>
<path d="M129.381 74.4167L129.955 74.3384L130.242 76.8712L131.548 76.7145L131.6 77.2106L129.72 77.4195L129.381 74.3906V74.4167Z" fill="white" style="fill:white;fill-opacity:1;"/>
<path d="M134.185 73.5027H134.603L134.812 77.4977H134.394L134.185 73.5027Z" fill="white" style="fill:white;fill-opacity:1;"/>
<path d="M138.885 73.8684H139.485L140.765 76.9495H140.138L139.172 74.469L138.127 76.9234H137.527L138.911 73.8945L138.885 73.8684ZM138.206 75.7745H140.007C140.007 75.8006 140.007 76.2706 140.007 76.2706H138.206C138.206 76.2445 138.206 75.7745 138.206 75.7745Z" fill="white" style="fill:white;fill-opacity:1;"/>
<path d="M143.115 74.7823C143.011 74.704 142.906 74.6518 142.802 74.5995C142.697 74.5473 142.593 74.5212 142.488 74.4951C142.384 74.4951 142.306 74.469 142.227 74.4429C142.097 74.4429 141.992 74.4429 141.888 74.4951C141.81 74.5473 141.757 74.6257 141.757 74.7301C141.757 74.8345 141.757 74.8868 141.836 74.9651C141.914 75.0434 141.966 75.0695 142.071 75.1218C142.175 75.174 142.28 75.2001 142.384 75.2523C142.488 75.3045 142.619 75.3307 142.723 75.3829C142.828 75.4351 142.932 75.4873 143.037 75.5657C143.141 75.644 143.193 75.7223 143.246 75.8268C143.298 75.9312 143.324 76.0618 143.298 76.2184C143.298 76.4012 143.22 76.5579 143.115 76.6884C143.011 76.819 142.854 76.9234 142.671 76.9756C142.488 77.0279 142.28 77.054 142.071 77.054C141.914 77.054 141.757 77.0018 141.601 76.9756C141.444 76.9495 141.313 76.8712 141.183 76.7668C141.052 76.6884 140.922 76.584 140.817 76.5057L141.078 76.0357C141.183 76.1401 141.287 76.2184 141.392 76.2968C141.496 76.3751 141.627 76.4273 141.757 76.4795C141.888 76.5318 141.992 76.5579 142.097 76.5579C142.253 76.5579 142.384 76.5579 142.488 76.4795C142.593 76.4012 142.645 76.3229 142.645 76.2184C142.645 76.114 142.645 76.0357 142.567 75.9834C142.488 75.9312 142.436 75.879 142.332 75.8268C142.227 75.7745 142.123 75.7484 142.018 75.6962C141.914 75.6701 141.783 75.6179 141.679 75.5657C141.575 75.5134 141.47 75.4612 141.366 75.3829C141.261 75.3045 141.209 75.2262 141.157 75.1218C141.105 75.0173 141.078 74.8868 141.078 74.7301C141.078 74.5473 141.157 74.3907 141.235 74.2862C141.34 74.1557 141.47 74.0773 141.653 73.999C141.836 73.9468 142.018 73.9207 142.253 73.9207C142.462 73.9207 142.645 73.9729 142.854 74.0512C143.037 74.1295 143.22 74.2079 143.35 74.3123L143.089 74.7823H143.115Z" fill="white" style="fill:white;fill-opacity:1;"/>
<path d="M145.882 75.0433C145.778 74.965 145.674 74.9127 145.569 74.8344C145.465 74.7561 145.36 74.73 145.256 74.7039C145.151 74.6777 145.073 74.6516 144.995 74.6516C144.864 74.6516 144.76 74.6516 144.655 74.7039C144.577 74.7561 144.525 74.8083 144.499 74.9127C144.499 75.0172 144.499 75.0955 144.577 75.1477C144.629 75.2 144.707 75.2783 144.786 75.3044C144.89 75.3566 144.969 75.4089 145.099 75.435C145.23 75.4611 145.334 75.5394 145.439 75.5916C145.543 75.6439 145.647 75.7222 145.752 75.7744C145.83 75.8527 145.909 75.9311 145.961 76.0616C146.013 76.1661 146.013 76.2966 146.013 76.4533C146.013 76.6361 145.935 76.7927 145.804 76.9233C145.7 77.0539 145.543 77.1322 145.36 77.1844C145.177 77.2366 144.969 77.2627 144.76 77.2366C144.603 77.2366 144.446 77.1844 144.29 77.1322C144.133 77.08 144.002 77.0016 143.872 76.9233C143.741 76.845 143.637 76.7405 143.532 76.6361L143.82 76.1922C143.924 76.2966 144.029 76.4011 144.133 76.4794C144.237 76.5577 144.368 76.61 144.472 76.6622C144.603 76.7144 144.707 76.7405 144.812 76.7405C144.969 76.7405 145.099 76.7405 145.204 76.6883C145.308 76.6361 145.36 76.5577 145.36 76.4272C145.36 76.3227 145.36 76.2444 145.282 76.1922C145.23 76.14 145.151 76.0616 145.073 76.0355C144.995 76.0094 144.89 75.9311 144.76 75.905C144.629 75.8789 144.525 75.8266 144.42 75.7744C144.316 75.7222 144.211 75.67 144.107 75.5916C144.029 75.5133 143.95 75.435 143.898 75.3305C143.846 75.2261 143.82 75.0955 143.846 74.9389C143.846 74.7561 143.924 74.6255 144.029 74.495C144.133 74.3644 144.29 74.2861 144.446 74.2338C144.629 74.1816 144.812 74.1555 145.047 74.1816C145.256 74.1816 145.439 74.26 145.621 74.3383C145.804 74.4166 145.961 74.495 146.091 74.6255L145.804 75.0694L145.882 75.0433Z" fill="white" style="fill:white;fill-opacity:1;"/>
<path d="M146.875 74.3906L149.095 74.7039L149.016 75.1739L147.371 74.9389L147.267 75.7223L148.729 75.9312L148.651 76.4012L147.189 76.1923L147.084 76.9756L148.781 77.2106L148.703 77.6806L146.431 77.3673L146.849 74.3384L146.875 74.3906Z" fill="white" style="fill:white;fill-opacity:1;"/>
<path d="M151.575 75.905C151.471 75.8266 151.392 75.7483 151.288 75.6961C151.183 75.6438 151.079 75.5916 151.001 75.5394C150.896 75.5133 150.818 75.4872 150.739 75.4611C150.609 75.4611 150.504 75.4611 150.4 75.4611C150.296 75.4611 150.243 75.5655 150.243 75.6699C150.243 75.7744 150.243 75.8527 150.296 75.905C150.348 75.9833 150.4 76.0355 150.504 76.0877C150.583 76.14 150.687 76.1922 150.792 76.2444C150.896 76.2966 151.001 76.3488 151.105 76.4272C151.209 76.4794 151.314 76.5577 151.392 76.6361C151.471 76.7144 151.549 76.8188 151.575 76.9233C151.601 77.0277 151.627 77.1583 151.575 77.315C151.549 77.4977 151.471 77.6544 151.34 77.7588C151.209 77.8633 151.053 77.9416 150.87 77.9938C150.687 78.0461 150.478 78.0461 150.269 77.9938C150.113 77.9677 149.956 77.9155 149.799 77.8372C149.643 77.7588 149.512 77.6805 149.408 77.5761C149.277 77.4716 149.173 77.3672 149.094 77.2627L149.408 76.8449C149.486 76.9494 149.591 77.0538 149.695 77.1583C149.799 77.2366 149.904 77.3149 150.034 77.3672C150.165 77.4194 150.269 77.4716 150.374 77.4716C150.531 77.4977 150.661 77.4716 150.766 77.4716C150.87 77.4194 150.922 77.3411 150.948 77.2366C150.948 77.1322 150.948 77.0538 150.896 77.0016C150.844 76.9233 150.792 76.8711 150.687 76.8188C150.609 76.7666 150.504 76.7144 150.4 76.6622C150.296 76.61 150.191 76.5577 150.087 76.4794C149.982 76.4272 149.878 76.3488 149.799 76.2705C149.721 76.1922 149.643 76.0877 149.617 75.9833C149.564 75.8788 149.564 75.7483 149.617 75.5916C149.643 75.4088 149.721 75.2783 149.852 75.1738C149.982 75.0694 150.113 74.9911 150.296 74.9388C150.478 74.8866 150.687 74.9127 150.896 74.9388C151.105 74.965 151.288 75.0433 151.471 75.1216C151.653 75.2261 151.81 75.3305 151.941 75.435L151.627 75.8527L151.575 75.905Z" fill="white" style="fill:white;fill-opacity:1;"/>
<path d="M154.29 76.5055C154.212 76.4272 154.108 76.3488 154.003 76.2705C153.899 76.1922 153.82 76.1399 153.716 76.1138C153.611 76.0616 153.533 76.0355 153.455 76.0355C153.324 76.0094 153.22 76.0094 153.115 76.0355C153.011 76.0616 152.959 76.1399 152.933 76.2444C152.933 76.3227 152.933 76.4272 152.959 76.4794C153.011 76.5577 153.063 76.61 153.168 76.6622C153.246 76.7144 153.35 76.7666 153.455 76.8449C153.559 76.8972 153.664 76.9755 153.768 77.0277C153.873 77.1061 153.977 77.1583 154.055 77.2627C154.134 77.3411 154.186 77.4455 154.238 77.5761C154.264 77.6805 154.264 77.8372 154.238 77.9677C154.186 78.1505 154.108 78.3072 153.977 78.4116C153.846 78.5161 153.69 78.5944 153.507 78.6205C153.324 78.6466 153.115 78.6205 152.906 78.6205C152.75 78.5944 152.593 78.5161 152.463 78.4638C152.332 78.3855 152.201 78.3072 152.071 78.2027C151.94 78.0983 151.862 77.9938 151.758 77.8633L152.097 77.4455C152.175 77.55 152.28 77.6544 152.384 77.7588C152.489 77.8633 152.593 77.9416 152.698 77.9938C152.802 78.0461 152.906 78.0983 153.011 78.1244C153.168 78.1505 153.298 78.1505 153.403 78.1244C153.507 78.0722 153.559 77.9938 153.585 77.8894C153.585 77.7849 153.585 77.7066 153.559 77.6544C153.507 77.5761 153.455 77.5238 153.376 77.4716C153.298 77.4194 153.194 77.3672 153.089 77.2888C152.985 77.2366 152.88 77.1844 152.776 77.1061C152.671 77.0277 152.567 76.9755 152.489 76.8711C152.41 76.7927 152.358 76.6883 152.306 76.5838C152.28 76.4794 152.28 76.3488 152.306 76.1922C152.332 76.0094 152.436 75.8788 152.541 75.7744C152.671 75.67 152.802 75.5916 152.985 75.5655C153.168 75.5394 153.376 75.5655 153.585 75.5916C153.794 75.6438 153.977 75.6961 154.134 75.8005C154.316 75.9049 154.447 76.0094 154.578 76.14L154.238 76.5577L154.29 76.5055Z" fill="white" style="fill:white;fill-opacity:1;"/>
<path d="M156.719 76.3227C156.928 76.3749 157.137 76.4794 157.294 76.6099C157.45 76.7405 157.607 76.8972 157.711 77.0538C157.816 77.2366 157.894 77.4194 157.92 77.6283C157.947 77.8371 157.92 78.046 157.868 78.2549C157.816 78.4638 157.711 78.6466 157.581 78.8033C157.45 78.9599 157.294 79.0905 157.111 79.1949C156.928 79.2994 156.745 79.3516 156.536 79.3777C156.328 79.3777 156.119 79.3777 155.884 79.3255C155.675 79.2733 155.466 79.1688 155.309 79.0383C155.153 78.9077 154.996 78.751 154.891 78.5683C154.787 78.3855 154.709 78.2027 154.683 77.9938C154.656 77.7849 154.683 77.576 154.735 77.3671C154.787 77.1583 154.891 76.9755 155.022 76.8188C155.153 76.6622 155.309 76.5316 155.492 76.4272C155.675 76.3227 155.858 76.2705 156.066 76.2444C156.275 76.2183 156.484 76.2444 156.719 76.2966V76.3227ZM156.589 76.7927C156.458 76.7666 156.328 76.7405 156.171 76.7666C156.04 76.7666 155.91 76.8188 155.779 76.8972C155.649 76.9755 155.57 77.0538 155.466 77.1583C155.361 77.2627 155.309 77.3933 155.283 77.5499C155.257 77.7066 155.231 77.8372 155.257 77.9677C155.257 78.0983 155.309 78.2288 155.388 78.3594C155.466 78.4899 155.544 78.5944 155.649 78.6727C155.753 78.751 155.884 78.8294 156.014 78.8555C156.145 78.8816 156.275 78.9077 156.406 78.8555C156.536 78.8555 156.667 78.7772 156.771 78.7249C156.876 78.6466 156.98 78.5683 157.085 78.4638C157.163 78.3594 157.242 78.2288 157.268 78.0722C157.32 77.9155 157.32 77.7849 157.294 77.6544C157.294 77.5238 157.241 77.3933 157.163 77.2627C157.111 77.1321 157.006 77.0538 156.902 76.9494C156.798 76.8449 156.667 76.7927 156.536 76.7666L156.589 76.7927Z" fill="white" style="fill:white;fill-opacity:1;"/>
<path d="M160.061 77.3673C160.426 77.4978 160.687 77.6806 160.844 77.9156C161.001 78.1506 161.001 78.4378 160.896 78.7511C160.792 79.0906 160.609 79.2995 160.348 79.4039C160.087 79.5084 159.774 79.5084 159.382 79.4039L158.729 79.195L158.442 80.0567L157.894 79.8739L158.86 76.9756L160.061 77.3673ZM159.539 78.96C159.747 79.0384 159.93 79.0384 160.061 78.96C160.217 78.9078 160.296 78.7773 160.374 78.5945C160.426 78.4117 160.426 78.255 160.348 78.1245C160.27 77.9939 160.113 77.8895 159.904 77.8373L159.251 77.6284L158.886 78.725L159.539 78.9339V78.96ZM159.46 79.195L160.009 79.3778L160.374 80.6834L159.747 80.4745L159.486 79.195H159.46Z" fill="white" style="fill:white;fill-opacity:1;"/>
<path d="M161.915 78.02L162.463 78.2289L161.419 81.075L160.871 80.8661L161.915 78.02Z" fill="white" style="fill:white;fill-opacity:1;"/>
<path d="M164.134 78.8555L164.683 79.0905L164.761 82.4066L164.187 82.1716V79.5082L162.307 81.4144L161.732 81.1794L164.134 78.8555ZM162.803 80.396L164.474 81.0749L164.291 81.5188L162.62 80.8399L162.803 80.396Z" fill="white" style="fill:white;fill-opacity:1;"/>
<path d="M168.599 80.8662C168.808 80.9706 168.991 81.1012 169.121 81.2579C169.252 81.4145 169.356 81.5712 169.435 81.754C169.513 81.9367 169.539 82.1195 169.513 82.3284C169.513 82.5373 169.435 82.7201 169.356 82.929C169.252 83.1379 169.148 83.2945 168.991 83.4251C168.834 83.5556 168.678 83.6601 168.469 83.7123C168.286 83.7645 168.077 83.7906 167.868 83.7645C167.659 83.7645 167.45 83.6862 167.241 83.5817L166.119 83.0334L167.45 80.2917L168.599 80.8401V80.8662ZM167.476 83.164C167.607 83.2162 167.738 83.2684 167.868 83.2684C167.999 83.2684 168.129 83.2684 168.234 83.2162C168.364 83.164 168.469 83.1117 168.573 83.0073C168.678 82.929 168.756 82.7984 168.834 82.6679C168.913 82.5373 168.939 82.3806 168.939 82.2501C168.939 82.1195 168.939 81.989 168.886 81.8584C168.834 81.7279 168.782 81.6234 168.704 81.519C168.625 81.4145 168.495 81.3362 168.364 81.284L167.764 80.9968L166.85 82.8506L167.476 83.164Z" fill="white" style="fill:white;fill-opacity:1;"/>
<path d="M170.532 81.8323L171.054 82.1195L169.618 84.8089L169.095 84.5217L170.532 81.8323Z" fill="white" style="fill:white;fill-opacity:1;"/>
<path d="M173.352 84.3388C173.3 84.1822 173.221 84.0516 173.143 83.921C173.039 83.7905 172.934 83.686 172.778 83.6077C172.647 83.5294 172.516 83.4772 172.386 83.4772C172.255 83.4772 172.125 83.4772 171.994 83.5033C171.864 83.5294 171.733 83.6077 171.629 83.686C171.524 83.7644 171.42 83.8688 171.341 83.9994C171.263 84.1299 171.211 84.2605 171.211 84.391C171.211 84.5216 171.211 84.6783 171.211 84.8088C171.237 84.9394 171.315 85.0699 171.394 85.1744C171.472 85.2788 171.576 85.3833 171.707 85.4616C171.838 85.5399 171.968 85.566 172.125 85.5922C172.281 85.5922 172.438 85.6183 172.595 85.5922L172.673 86.1144C172.543 86.1144 172.412 86.1144 172.255 86.1144C172.099 86.1144 171.968 86.0622 171.811 86.036C171.655 86.0099 171.55 85.9316 171.42 85.8533C171.211 85.7488 171.054 85.5922 170.924 85.4355C170.793 85.2788 170.715 85.096 170.636 84.8872C170.584 84.6783 170.558 84.4955 170.584 84.2866C170.584 84.0777 170.689 83.8949 170.793 83.686C170.898 83.5033 171.054 83.3466 171.211 83.216C171.368 83.0855 171.55 83.0072 171.759 82.9549C171.968 82.9027 172.177 82.9027 172.386 82.9549C172.595 82.981 172.804 83.0594 173.013 83.1899C173.143 83.2683 173.248 83.3466 173.352 83.451C173.456 83.5555 173.561 83.6599 173.639 83.7905C173.718 83.921 173.77 84.0255 173.822 84.156L173.326 84.3388H173.352ZM172.804 84.861L173.248 85.1222L172.673 86.1144L172.229 85.8533L172.804 84.861Z" fill="white" style="fill:white;fill-opacity:1;"/>
<path d="M174.657 84.1821L175.153 84.4955L173.534 87.0805L173.038 86.7671L174.657 84.1821Z" fill="white" style="fill:white;fill-opacity:1;"/>
<path d="M175.545 84.7566L177.608 86.1405L177.347 86.5583L176.563 86.036L175.153 88.151L174.657 87.8377L176.067 85.7227L175.284 85.2005L175.545 84.7827V84.7566Z" fill="white" style="fill:white;fill-opacity:1;"/>
<path d="M178.574 86.7935L179.07 87.1329L178.365 90.3707L177.869 90.0051L178.496 87.4201L176.224 88.8301L175.728 88.4646L178.6 86.7935H178.574ZM176.929 87.9685L178.391 89.039L178.104 89.4307L176.642 88.3601L176.929 87.9685Z" fill="white" style="fill:white;fill-opacity:1;"/>
<path d="M180.48 88.2295L180.95 88.595L179.383 90.6056L180.428 91.4151L180.114 91.8067L178.626 90.6317L180.506 88.2295H180.48Z" fill="white" style="fill:white;fill-opacity:1;"/>
<path d="M185.989 92.9556L186.407 93.3472L184.292 95.5406L183.874 95.1489L185.989 92.9556Z" fill="white" style="fill:white;fill-opacity:1;"/>
<path d="M187.896 94.8355C188.052 94.9922 188.183 95.175 188.261 95.3578C188.339 95.5405 188.392 95.7494 188.392 95.9322C188.392 96.115 188.366 96.3239 188.287 96.5066C188.209 96.6894 188.078 96.8722 187.922 97.0289C187.765 97.1855 187.582 97.29 187.399 97.3683C187.217 97.4466 187.008 97.4728 186.825 97.4728C186.616 97.4728 186.433 97.4205 186.251 97.3422C186.068 97.2639 185.885 97.1333 185.728 96.9505L184.867 96.0628L187.06 93.9478L187.948 94.8616L187.896 94.8355ZM186.068 96.6372C186.172 96.7416 186.277 96.82 186.381 96.8722C186.512 96.9244 186.616 96.9505 186.747 96.9505C186.877 96.9505 187.008 96.9244 187.138 96.8722C187.269 96.82 187.373 96.7416 187.478 96.6372C187.582 96.5328 187.661 96.4022 187.713 96.2978C187.765 96.1672 187.791 96.0366 187.791 95.9061C187.791 95.7755 187.791 95.645 187.713 95.5405C187.661 95.41 187.582 95.3055 187.478 95.2011L187.008 94.7311L185.519 96.1672L186.016 96.6633L186.068 96.6372Z" fill="white" style="fill:white;fill-opacity:1;"/>
<path d="M189.436 96.4284L190.924 98.0996L190.559 98.4129L189.462 97.1857L188.862 97.7079L189.854 98.8046L189.488 99.1179L188.496 98.0212L187.895 98.5435L189.018 99.8229L188.653 100.136L187.138 98.4129L189.41 96.4023L189.436 96.4284Z" fill="white" style="fill:white;fill-opacity:1;"/>
<path d="M191.995 99.4312L192.361 99.9012L190.82 102.852L190.428 102.356L191.708 100.032L189.149 100.789L188.757 100.319L191.969 99.4573L191.995 99.4312ZM190.115 100.136L191.264 101.546L190.898 101.833L189.75 100.423L190.115 100.136Z" fill="white" style="fill:white;fill-opacity:1;"/>
<path d="M193.483 101.311L193.822 101.781L191.786 103.295L192.569 104.34L192.177 104.627L191.055 103.113L193.509 101.311H193.483Z" fill="white" style="fill:white;fill-opacity:1;"/>
<path d="M196.669 105.019L196.904 105.384L193.536 107.578L193.301 107.212L196.669 105.019Z" fill="white" style="fill:white;fill-opacity:1;"/>
<path d="M198.679 109.249L198.966 109.771L196.956 112.408L196.642 111.86L198.287 109.771L195.65 110.084L195.363 109.562L198.679 109.249ZM196.721 109.64L197.609 111.233L197.191 111.468L196.303 109.875L196.721 109.64Z" fill="white" style="fill:white;fill-opacity:1;"/>
<path d="M200.011 113.401C200.011 113.27 200.011 113.139 200.011 113.035C200.011 112.931 199.985 112.8 199.959 112.722C199.933 112.617 199.907 112.539 199.855 112.461C199.803 112.33 199.724 112.252 199.646 112.199C199.568 112.147 199.463 112.147 199.385 112.199C199.306 112.252 199.254 112.304 199.228 112.382C199.228 112.461 199.202 112.565 199.228 112.669C199.228 112.774 199.228 112.878 199.28 113.009C199.28 113.139 199.306 113.244 199.333 113.374C199.333 113.505 199.333 113.609 199.333 113.74C199.333 113.844 199.28 113.975 199.202 114.053C199.124 114.158 199.019 114.236 198.889 114.314C198.732 114.393 198.549 114.419 198.393 114.393C198.236 114.367 198.079 114.288 197.923 114.158C197.792 114.027 197.661 113.871 197.557 113.662C197.453 113.453 197.426 113.374 197.4 113.218C197.374 113.061 197.348 112.904 197.348 112.748C197.348 112.591 197.348 112.434 197.4 112.304H197.923C197.896 112.434 197.87 112.591 197.844 112.722C197.844 112.852 197.844 112.983 197.844 113.113C197.844 113.244 197.896 113.348 197.949 113.453C198.027 113.609 198.105 113.714 198.21 113.766C198.314 113.818 198.419 113.818 198.523 113.766C198.601 113.714 198.654 113.662 198.68 113.583C198.68 113.505 198.706 113.401 198.706 113.322C198.706 113.218 198.706 113.113 198.654 112.983C198.654 112.852 198.601 112.748 198.601 112.617C198.601 112.487 198.601 112.382 198.601 112.252C198.601 112.147 198.654 112.017 198.732 111.938C198.784 111.834 198.889 111.756 199.045 111.677C199.202 111.599 199.359 111.573 199.515 111.599C199.672 111.625 199.829 111.703 199.959 111.834C200.09 111.964 200.22 112.121 200.325 112.33C200.403 112.513 200.481 112.696 200.508 112.904C200.534 113.113 200.56 113.296 200.508 113.453H199.985L200.011 113.401Z" fill="white" style="fill:white;fill-opacity:1;"/>
<path d="M201.16 115.933C201.16 115.803 201.16 115.698 201.16 115.568C201.16 115.437 201.16 115.333 201.108 115.254C201.108 115.15 201.056 115.072 201.03 114.993C200.977 114.863 200.899 114.784 200.821 114.732C200.742 114.68 200.664 114.68 200.56 114.732C200.481 114.758 200.429 114.837 200.377 114.915C200.325 114.993 200.325 115.072 200.351 115.176C200.351 115.281 200.351 115.385 200.377 115.516C200.403 115.646 200.403 115.751 200.403 115.881C200.403 116.012 200.403 116.116 200.403 116.247C200.403 116.351 200.325 116.456 200.272 116.56C200.22 116.664 200.09 116.743 199.959 116.795C199.776 116.873 199.62 116.899 199.463 116.847C199.306 116.821 199.15 116.717 199.019 116.586C198.888 116.456 198.758 116.299 198.68 116.09C198.601 115.933 198.575 115.777 198.549 115.62C198.549 115.463 198.523 115.307 198.549 115.15C198.575 114.993 198.575 114.837 198.627 114.706H199.15C199.097 114.863 199.071 114.993 199.071 115.15C199.071 115.307 199.071 115.411 199.071 115.542C199.071 115.672 199.123 115.777 199.176 115.881C199.254 116.038 199.332 116.142 199.411 116.194C199.515 116.247 199.62 116.247 199.724 116.194C199.802 116.142 199.881 116.09 199.907 116.012C199.933 115.933 199.959 115.855 199.933 115.751C199.907 115.646 199.933 115.542 199.907 115.411C199.907 115.281 199.881 115.176 199.855 115.046C199.855 114.915 199.855 114.811 199.855 114.68C199.855 114.576 199.907 114.471 199.985 114.367C200.063 114.262 200.168 114.184 200.298 114.132C200.455 114.053 200.612 114.027 200.768 114.079C200.925 114.106 201.082 114.184 201.212 114.314C201.343 114.445 201.473 114.602 201.552 114.811C201.63 114.993 201.682 115.176 201.708 115.385C201.708 115.594 201.708 115.777 201.708 115.933H201.186H201.16Z" fill="white" style="fill:white;fill-opacity:1;"/>
<path d="M202.231 116.482L203.066 118.544L202.622 118.727L202.022 117.187L201.291 117.474L201.839 118.858L201.395 119.041L200.847 117.657L200.116 117.944L200.742 119.537L200.298 119.719L199.463 117.604L202.283 116.482H202.231Z" fill="white" style="fill:white;fill-opacity:1;"/>
<path d="M203.223 121.286C203.249 121.156 203.275 121.051 203.275 120.921C203.275 120.79 203.275 120.686 203.275 120.581C203.275 120.477 203.249 120.398 203.223 120.32C203.17 120.189 203.118 120.085 203.04 120.033C202.962 119.981 202.883 119.954 202.779 119.981C202.7 120.007 202.622 120.059 202.596 120.137C202.57 120.216 202.544 120.294 202.544 120.398C202.544 120.503 202.544 120.607 202.544 120.738C202.544 120.868 202.544 120.973 202.544 121.103C202.544 121.234 202.544 121.338 202.492 121.469C202.465 121.573 202.413 121.678 202.335 121.782C202.257 121.861 202.152 121.939 201.995 121.991C201.813 122.043 201.656 122.069 201.499 121.991C201.343 121.913 201.186 121.834 201.082 121.704C200.977 121.573 200.847 121.391 200.768 121.182C200.716 121.025 200.69 120.868 200.664 120.712C200.664 120.555 200.664 120.398 200.664 120.242C200.664 120.085 200.716 119.954 200.768 119.798L201.29 119.876C201.238 120.007 201.186 120.137 201.16 120.268C201.16 120.398 201.134 120.529 201.16 120.659C201.16 120.79 201.186 120.894 201.212 120.999C201.264 121.156 201.343 121.26 201.421 121.338C201.499 121.417 201.604 121.417 201.708 121.391C201.787 121.364 201.865 121.312 201.891 121.234C201.917 121.156 201.943 121.077 201.943 120.973C201.943 120.868 201.943 120.764 201.943 120.633C201.943 120.503 201.943 120.398 201.943 120.268C201.943 120.137 201.943 120.033 201.995 119.902C202.048 119.772 202.074 119.693 202.152 119.589C202.23 119.511 202.335 119.432 202.492 119.38C202.648 119.328 202.831 119.328 202.962 119.38C203.118 119.432 203.249 119.511 203.379 119.667C203.51 119.824 203.614 119.981 203.667 120.189C203.745 120.372 203.771 120.581 203.771 120.79C203.771 120.999 203.771 121.182 203.719 121.338L203.197 121.286H203.223Z" fill="white" style="fill:white;fill-opacity:1;"/>
<path d="M204.058 123.976C204.084 123.845 204.11 123.741 204.11 123.61C204.11 123.479 204.11 123.375 204.11 123.271C204.11 123.166 204.084 123.088 204.058 123.009C204.006 122.879 203.954 122.774 203.875 122.722C203.797 122.67 203.719 122.644 203.614 122.67C203.536 122.696 203.458 122.748 203.431 122.827C203.405 122.905 203.379 122.983 203.353 123.088C203.353 123.192 203.353 123.297 203.353 123.427C203.353 123.558 203.353 123.662 203.353 123.793C203.353 123.923 203.327 124.028 203.301 124.158C203.275 124.263 203.196 124.367 203.118 124.446C203.04 124.524 202.909 124.602 202.779 124.654C202.596 124.707 202.439 124.707 202.283 124.654C202.126 124.602 201.995 124.498 201.865 124.341C201.734 124.184 201.656 124.002 201.578 123.793C201.525 123.636 201.499 123.479 201.499 123.323C201.499 123.166 201.499 123.009 201.525 122.853C201.551 122.696 201.604 122.566 201.656 122.435L202.178 122.539C202.126 122.67 202.074 122.801 202.048 122.931C202.021 123.062 201.995 123.192 201.995 123.323C201.995 123.453 201.995 123.558 202.048 123.662C202.1 123.819 202.152 123.923 202.256 124.002C202.335 124.08 202.439 124.08 202.544 124.054C202.648 124.028 202.7 123.976 202.726 123.897C202.753 123.819 202.779 123.741 202.805 123.636C202.831 123.532 202.805 123.427 202.805 123.297C202.805 123.166 202.805 123.062 202.805 122.931C202.805 122.801 202.831 122.696 202.857 122.566C202.883 122.461 202.935 122.357 203.04 122.278C203.118 122.2 203.223 122.122 203.379 122.069C203.536 122.017 203.719 122.017 203.849 122.069C204.006 122.122 204.136 122.226 204.241 122.357C204.371 122.487 204.45 122.67 204.528 122.905C204.58 123.088 204.606 123.297 204.606 123.506C204.606 123.714 204.606 123.897 204.528 124.054L204.006 123.976H204.058Z" fill="white" style="fill:white;fill-opacity:1;"/>
<path d="M205.416 125.96C205.468 126.195 205.494 126.404 205.468 126.613C205.442 126.822 205.364 127.004 205.286 127.187C205.181 127.37 205.051 127.527 204.894 127.631C204.737 127.762 204.554 127.84 204.319 127.892C204.111 127.944 203.902 127.944 203.693 127.918C203.484 127.892 203.301 127.814 203.118 127.709C202.936 127.605 202.805 127.474 202.674 127.292C202.544 127.109 202.466 126.926 202.413 126.691C202.361 126.456 202.335 126.247 202.361 126.038C202.387 125.829 202.466 125.647 202.544 125.464C202.648 125.281 202.779 125.124 202.936 124.994C203.092 124.863 203.275 124.785 203.51 124.733C203.745 124.68 203.928 124.68 204.137 124.707C204.346 124.733 204.528 124.811 204.711 124.915C204.894 125.02 205.024 125.15 205.155 125.333C205.286 125.516 205.364 125.699 205.416 125.934V125.96ZM204.946 126.09C204.92 125.96 204.842 125.829 204.763 125.725C204.685 125.62 204.581 125.542 204.45 125.464C204.319 125.385 204.215 125.359 204.058 125.333C203.928 125.333 203.771 125.333 203.641 125.333C203.51 125.333 203.353 125.438 203.249 125.516C203.144 125.594 203.04 125.699 202.962 125.829C202.883 125.96 202.831 126.064 202.831 126.195C202.831 126.325 202.831 126.456 202.831 126.587C202.857 126.717 202.936 126.848 203.014 126.952C203.092 127.057 203.197 127.135 203.327 127.213C203.458 127.292 203.562 127.318 203.719 127.344C203.849 127.344 204.006 127.344 204.137 127.344C204.293 127.318 204.424 127.239 204.528 127.161C204.633 127.083 204.737 126.978 204.789 126.874C204.842 126.769 204.92 126.639 204.92 126.508C204.92 126.378 204.92 126.247 204.92 126.117L204.946 126.09Z" fill="white" style="fill:white;fill-opacity:1;"/>
<path d="M206.174 129.407C206.252 129.798 206.226 130.112 206.095 130.347C205.965 130.582 205.73 130.738 205.416 130.817C205.077 130.895 204.79 130.817 204.555 130.66C204.32 130.477 204.163 130.216 204.085 129.824L203.954 129.146L203.066 129.328L202.962 128.754L205.939 128.153L206.2 129.407H206.174ZM204.294 129.772L204.398 130.321L203.432 131.287L203.301 130.634L204.267 129.772H204.294ZM204.555 129.746C204.607 129.955 204.685 130.112 204.79 130.216C204.894 130.321 205.077 130.347 205.26 130.294C205.442 130.268 205.573 130.164 205.651 130.033C205.73 129.903 205.73 129.72 205.677 129.511L205.547 128.832L204.398 129.067L204.529 129.746H204.555Z" fill="white" style="fill:white;fill-opacity:1;"/>
<path d="M206.539 131.339L206.643 131.913L203.641 132.409L203.536 131.835L206.539 131.339Z" fill="white" style="fill:white;fill-opacity:1;"/>
<path d="M206.904 133.689L206.983 134.289L204.137 135.987L204.058 135.36L206.356 134.028L203.797 133.349L203.719 132.749L206.904 133.689ZM204.92 133.297L205.155 135.099L204.685 135.151L204.45 133.349L204.92 133.297Z" fill="white" style="fill:white;fill-opacity:1;"/>
<path d="M207.401 138.519C207.401 138.754 207.401 138.963 207.323 139.172C207.244 139.381 207.166 139.538 207.035 139.694C206.905 139.851 206.748 139.956 206.565 140.06C206.383 140.138 206.174 140.191 205.965 140.217C205.756 140.217 205.547 140.217 205.338 140.138C205.155 140.06 204.973 139.982 204.842 139.851C204.685 139.721 204.581 139.564 204.503 139.355C204.424 139.172 204.372 138.963 204.346 138.728L204.268 137.475L207.296 137.266L207.375 138.519H207.401ZM204.842 138.702C204.842 138.833 204.894 138.963 204.946 139.094C204.999 139.198 205.077 139.303 205.181 139.381C205.286 139.459 205.39 139.538 205.521 139.564C205.651 139.59 205.782 139.616 205.939 139.616C206.095 139.616 206.226 139.564 206.356 139.512C206.487 139.459 206.591 139.381 206.67 139.277C206.748 139.172 206.826 139.068 206.853 138.937C206.905 138.807 206.905 138.676 206.905 138.546L206.853 137.867L204.79 137.997L204.842 138.702Z" fill="white" style="fill:white;fill-opacity:1;"/>
<path d="M207.505 140.713V141.287L204.476 141.392V140.817L207.505 140.713Z" fill="white" style="fill:white;fill-opacity:1;"/>
<path d="M206.722 144.394C206.826 144.29 206.93 144.159 206.983 144.003C207.035 143.846 207.087 143.689 207.087 143.533C207.087 143.376 207.087 143.245 207.009 143.115C206.957 142.984 206.878 142.88 206.774 142.775C206.669 142.671 206.565 142.593 206.434 142.54C206.304 142.488 206.173 142.462 206.017 142.462C205.86 142.462 205.729 142.462 205.599 142.54C205.468 142.593 205.364 142.671 205.259 142.749C205.155 142.854 205.077 142.958 205.024 143.089C204.972 143.219 204.946 143.35 204.946 143.507C204.946 143.637 204.946 143.794 205.024 143.924C205.077 144.081 205.155 144.212 205.233 144.342L204.815 144.682C204.737 144.577 204.659 144.447 204.607 144.316C204.554 144.185 204.502 144.029 204.476 143.898C204.45 143.742 204.424 143.611 204.424 143.48C204.424 143.245 204.476 143.037 204.554 142.854C204.633 142.671 204.763 142.488 204.894 142.358C205.024 142.227 205.207 142.097 205.39 142.018C205.573 141.94 205.782 141.914 206.017 141.914C206.225 141.914 206.434 141.966 206.617 142.044C206.8 142.123 206.957 142.253 207.113 142.41C207.27 142.567 207.348 142.749 207.427 142.932C207.505 143.141 207.531 143.35 207.531 143.585C207.531 143.742 207.531 143.872 207.479 144.029C207.453 144.159 207.4 144.316 207.322 144.447C207.244 144.577 207.165 144.682 207.087 144.786L206.695 144.447L206.722 144.394ZM205.99 144.185V144.708H204.842V144.212H205.99V144.185Z" fill="white" style="fill:white;fill-opacity:1;"/>
<path d="M207.505 145.439V146.013L204.45 145.909V145.334L207.505 145.439Z" fill="white" style="fill:white;fill-opacity:1;"/>
<path d="M207.479 146.51L207.322 148.99H206.826C206.826 148.964 206.878 148.024 206.878 148.024L204.319 147.867V147.293C204.345 147.293 206.904 147.45 206.904 147.45L206.957 146.51H207.453H207.479Z" fill="white" style="fill:white;fill-opacity:1;"/>
<path d="M207.191 150.139L207.139 150.739L203.98 151.732L204.032 151.105L206.591 150.348L204.241 149.094L204.293 148.494L207.191 150.139ZM205.364 149.303L205.181 151.105L204.711 151.053L204.894 149.251L205.364 149.303Z" fill="white" style="fill:white;fill-opacity:1;"/>
<path d="M206.931 152.515L206.852 153.089L204.32 152.724L204.137 154.029L203.641 153.951L203.928 152.071L206.931 152.515Z" fill="white" style="fill:white;fill-opacity:1;"/>
<path d="M205.573 159.669L205.442 160.244L202.492 159.513L202.622 158.938L205.573 159.669Z" fill="white" style="fill:white;fill-opacity:1;"/>
<path d="M204.894 162.254C204.842 162.489 204.737 162.672 204.607 162.829C204.476 162.986 204.346 163.116 204.163 163.221C203.98 163.325 203.797 163.377 203.615 163.403C203.406 163.403 203.197 163.403 202.988 163.351C202.779 163.299 202.596 163.194 202.44 163.064C202.283 162.933 202.152 162.777 202.074 162.62C201.97 162.437 201.917 162.254 201.917 162.046C201.917 161.837 201.917 161.628 201.996 161.393L202.335 160.192L205.26 161.027L204.92 162.254H204.894ZM202.414 161.549C202.387 161.68 202.361 161.811 202.387 161.941C202.387 162.072 202.44 162.176 202.518 162.307C202.596 162.437 202.675 162.516 202.779 162.594C202.884 162.672 203.014 162.751 203.171 162.777C203.327 162.829 203.458 162.829 203.589 162.829C203.719 162.829 203.85 162.777 203.954 162.724C204.059 162.672 204.163 162.594 204.241 162.489C204.32 162.385 204.372 162.254 204.424 162.124L204.607 161.471L202.622 160.897L202.44 161.576L202.414 161.549Z" fill="white" style="fill:white;fill-opacity:1;"/>
<path d="M204.241 164.369L203.536 166.484L203.066 166.328L203.588 164.761L202.831 164.5L202.361 165.91L201.891 165.753L202.361 164.343L201.604 164.082L201.055 165.701L200.585 165.544L201.316 163.377L204.215 164.343L204.241 164.369Z" fill="white" style="fill:white;fill-opacity:1;"/>
<path d="M202.935 168.077L202.727 168.626L199.41 168.756L199.645 168.182L202.309 168.13L200.377 166.302L200.585 165.727L202.935 168.077ZM201.395 166.798L200.742 168.495L200.298 168.312L200.951 166.615L201.395 166.798Z" fill="white" style="fill:white;fill-opacity:1;"/>
<path d="M202.048 170.297L201.813 170.819L199.489 169.801L198.967 171.002L198.523 170.793L199.28 169.043L202.074 170.271L202.048 170.297Z" fill="white" style="fill:white;fill-opacity:1;"/>
<path d="M200.403 174.918L200.194 175.31L196.617 173.456L196.826 173.064L200.403 174.918Z" fill="white" style="fill:white;fill-opacity:1;"/>
<path d="M197.713 178.757L197.4 179.279L194.11 178.835L194.423 178.313L197.061 178.73L195.468 176.589L195.781 176.067L197.687 178.783L197.713 178.757ZM196.434 177.242L195.494 178.783L195.076 178.548L196.016 177.007L196.434 177.242Z" fill="white" style="fill:white;fill-opacity:1;"/>
<path d="M194.789 181.968C194.894 181.916 194.998 181.864 195.102 181.786C195.207 181.707 195.285 181.655 195.364 181.577C195.442 181.498 195.494 181.446 195.546 181.368C195.625 181.263 195.651 181.159 195.651 181.055C195.651 180.95 195.625 180.872 195.52 180.82C195.442 180.767 195.364 180.741 195.285 180.767C195.207 180.767 195.129 180.82 195.024 180.872C194.946 180.924 194.841 181.002 194.763 181.081C194.685 181.159 194.58 181.237 194.476 181.316C194.371 181.394 194.267 181.446 194.162 181.498C194.058 181.551 193.927 181.551 193.823 181.551C193.719 181.551 193.588 181.498 193.457 181.394C193.301 181.29 193.196 181.159 193.144 181.002C193.092 180.846 193.092 180.663 193.118 180.48C193.144 180.297 193.249 180.115 193.353 179.932C193.431 179.801 193.562 179.671 193.666 179.566C193.797 179.462 193.927 179.357 194.058 179.305C194.189 179.253 194.345 179.175 194.476 179.148L194.737 179.618C194.606 179.645 194.476 179.697 194.345 179.775C194.215 179.827 194.11 179.906 194.006 179.984C193.901 180.062 193.823 180.141 193.771 180.245C193.666 180.376 193.64 180.506 193.64 180.611C193.64 180.715 193.692 180.82 193.797 180.872C193.875 180.924 193.954 180.95 194.032 180.924C194.11 180.924 194.189 180.872 194.293 180.82C194.371 180.767 194.476 180.689 194.554 180.611C194.632 180.532 194.737 180.454 194.841 180.376C194.946 180.297 195.05 180.245 195.155 180.193C195.259 180.141 195.364 180.141 195.494 180.141C195.599 180.141 195.729 180.193 195.86 180.271C196.016 180.376 196.121 180.506 196.173 180.637C196.225 180.793 196.225 180.95 196.199 181.133C196.173 181.316 196.095 181.498 195.964 181.681C195.86 181.838 195.729 181.995 195.572 182.125C195.416 182.256 195.259 182.36 195.102 182.412L194.841 181.942L194.789 181.968Z" fill="white" style="fill:white;fill-opacity:1;"/>
<path d="M193.144 184.24C193.248 184.188 193.379 184.135 193.483 184.083C193.588 184.031 193.666 183.953 193.744 183.874C193.823 183.796 193.875 183.744 193.927 183.665C194.005 183.561 194.058 183.457 194.058 183.352C194.058 183.248 194.031 183.169 193.953 183.117C193.875 183.065 193.796 183.039 193.718 183.065C193.64 183.065 193.561 183.117 193.457 183.169C193.379 183.222 193.274 183.3 193.17 183.352C193.065 183.43 192.961 183.509 192.883 183.561C192.778 183.639 192.674 183.692 192.569 183.718C192.465 183.744 192.334 183.77 192.23 183.744C192.125 183.718 191.995 183.665 191.864 183.587C191.708 183.483 191.603 183.352 191.551 183.169C191.499 182.987 191.499 182.83 191.551 182.647C191.603 182.464 191.681 182.282 191.812 182.099C191.916 181.968 192.021 181.864 192.151 181.759C192.282 181.655 192.413 181.577 192.543 181.498C192.674 181.42 192.83 181.368 192.961 181.342L193.196 181.812C193.065 181.838 192.935 181.89 192.804 181.942C192.674 181.994 192.569 182.073 192.465 182.151C192.36 182.229 192.282 182.308 192.23 182.386C192.125 182.517 192.073 182.647 192.073 182.752C192.073 182.856 192.125 182.96 192.204 183.013C192.282 183.065 192.36 183.091 192.439 183.065C192.517 183.065 192.595 183.013 192.7 182.96C192.778 182.908 192.883 182.83 192.961 182.752C193.065 182.673 193.144 182.595 193.248 182.543C193.353 182.464 193.457 182.412 193.561 182.386C193.666 182.334 193.796 182.334 193.901 182.334C194.005 182.334 194.136 182.386 194.266 182.49C194.397 182.595 194.501 182.725 194.554 182.882C194.606 183.039 194.606 183.195 194.554 183.378C194.501 183.561 194.423 183.744 194.293 183.927C194.162 184.083 194.031 184.24 193.875 184.344C193.718 184.475 193.561 184.553 193.379 184.632L193.118 184.162L193.144 184.24Z" fill="white" style="fill:white;fill-opacity:1;"/>
<path d="M193.223 185.415L191.839 187.165L191.447 186.851L192.465 185.572L191.839 185.076L190.925 186.225L190.559 185.911L191.473 184.762L190.846 184.266L189.776 185.598L189.384 185.285L190.794 183.483L193.17 185.389L193.223 185.415Z" fill="white" style="fill:white;fill-opacity:1;"/>
<path d="M189.515 188.679C189.645 188.653 189.75 188.601 189.854 188.548C189.958 188.496 190.063 188.444 190.141 188.366C190.22 188.313 190.298 188.235 190.35 188.183C190.428 188.078 190.481 187.974 190.507 187.896C190.533 187.817 190.507 187.713 190.402 187.661C190.324 187.608 190.246 187.582 190.167 187.582C190.089 187.582 189.985 187.608 189.906 187.661C189.828 187.713 189.723 187.765 189.619 187.843C189.515 187.922 189.41 187.974 189.306 188.026C189.201 188.078 189.097 188.131 188.966 188.157C188.862 188.183 188.731 188.183 188.627 188.157C188.522 188.157 188.392 188.078 188.261 187.974C188.131 187.843 188.026 187.713 188 187.53C187.974 187.373 188 187.191 188.026 187.008C188.052 186.825 188.183 186.642 188.34 186.486C188.444 186.355 188.575 186.251 188.705 186.172C188.836 186.094 188.966 186.016 189.123 185.963C189.28 185.911 189.41 185.859 189.567 185.859L189.776 186.355C189.645 186.355 189.488 186.407 189.358 186.459C189.227 186.512 189.097 186.564 188.992 186.642C188.888 186.721 188.783 186.799 188.731 186.877C188.627 187.008 188.575 187.112 188.548 187.243C188.522 187.373 188.575 187.452 188.653 187.53C188.731 187.582 188.81 187.608 188.888 187.608C188.966 187.608 189.071 187.582 189.149 187.53C189.253 187.478 189.332 187.426 189.436 187.347C189.541 187.269 189.645 187.217 189.75 187.164C189.854 187.112 189.958 187.06 190.089 187.034C190.22 187.008 190.324 187.008 190.428 187.034C190.533 187.06 190.663 187.112 190.768 187.217C190.898 187.321 190.977 187.478 191.029 187.634C191.055 187.791 191.029 187.948 191.003 188.131C190.977 188.313 190.846 188.47 190.69 188.653C190.559 188.809 190.402 188.94 190.246 189.044C190.089 189.149 189.906 189.227 189.75 189.279L189.541 188.783L189.515 188.679Z" fill="white" style="fill:white;fill-opacity:1;"/>
<path d="M187.634 190.742C187.765 190.715 187.869 190.663 187.974 190.611C188.078 190.559 188.183 190.507 188.261 190.454C188.339 190.402 188.418 190.324 188.47 190.272C188.574 190.167 188.627 190.063 188.627 189.984C188.627 189.88 188.627 189.802 188.548 189.723C188.47 189.671 188.418 189.619 188.313 189.645C188.235 189.645 188.13 189.671 188.052 189.723C187.948 189.775 187.869 189.828 187.765 189.88C187.66 189.932 187.556 190.011 187.452 190.063C187.347 190.115 187.217 190.167 187.112 190.193C187.008 190.193 186.877 190.193 186.773 190.193C186.668 190.167 186.538 190.089 186.433 189.984C186.303 189.854 186.224 189.697 186.172 189.541C186.146 189.384 186.172 189.201 186.224 189.018C186.303 188.836 186.407 188.679 186.564 188.496C186.668 188.366 186.799 188.287 186.929 188.183C187.06 188.104 187.217 188.026 187.347 187.974C187.504 187.922 187.634 187.895 187.791 187.869L187.974 188.366C187.843 188.366 187.687 188.392 187.556 188.444C187.425 188.496 187.295 188.548 187.19 188.6C187.086 188.653 186.982 188.731 186.903 188.809C186.799 188.94 186.72 189.044 186.72 189.149C186.72 189.253 186.72 189.358 186.825 189.436C186.903 189.514 186.982 189.541 187.06 189.541C187.138 189.541 187.243 189.514 187.321 189.462C187.425 189.41 187.504 189.358 187.608 189.305C187.713 189.253 187.817 189.175 187.922 189.123C188.026 189.07 188.157 189.018 188.261 188.992C188.365 188.966 188.496 188.966 188.6 188.992C188.705 188.992 188.835 189.097 188.94 189.201C189.07 189.332 189.149 189.462 189.175 189.619C189.201 189.775 189.175 189.932 189.123 190.115C189.07 190.298 188.94 190.454 188.783 190.637C188.653 190.794 188.496 190.898 188.313 191.003C188.13 191.107 187.974 191.185 187.791 191.212L187.608 190.716L187.634 190.742Z" fill="white" style="fill:white;fill-opacity:1;"/>
<path d="M186.564 192.909C186.407 193.066 186.225 193.196 186.016 193.274C185.807 193.353 185.624 193.405 185.415 193.405C185.206 193.405 185.023 193.379 184.815 193.301C184.632 193.222 184.449 193.118 184.292 192.961C184.136 192.804 184.031 192.622 183.953 192.439C183.875 192.256 183.848 192.047 183.848 191.838C183.848 191.629 183.901 191.447 183.979 191.238C184.057 191.029 184.188 190.872 184.345 190.716C184.501 190.559 184.684 190.428 184.893 190.35C185.102 190.272 185.285 190.219 185.493 190.219C185.702 190.219 185.885 190.246 186.094 190.324C186.277 190.402 186.46 190.533 186.616 190.689C186.773 190.846 186.877 191.029 186.956 191.212C187.034 191.394 187.06 191.603 187.06 191.812C187.06 192.021 187.008 192.204 186.93 192.413C186.851 192.596 186.721 192.778 186.564 192.935V192.909ZM186.225 192.569C186.329 192.465 186.407 192.361 186.459 192.23C186.512 192.099 186.538 191.969 186.538 191.838C186.538 191.708 186.538 191.577 186.459 191.447C186.381 191.316 186.329 191.212 186.225 191.081C186.12 190.977 185.99 190.898 185.885 190.846C185.781 190.794 185.624 190.768 185.493 190.768C185.363 190.768 185.232 190.768 185.102 190.82C184.971 190.872 184.867 190.951 184.762 191.029C184.658 191.133 184.58 191.238 184.527 191.368C184.475 191.499 184.449 191.629 184.449 191.76C184.449 191.891 184.475 192.021 184.527 192.152C184.58 192.282 184.658 192.413 184.762 192.517C184.867 192.622 184.971 192.7 185.102 192.752C185.232 192.804 185.363 192.831 185.493 192.831C185.624 192.831 185.755 192.831 185.885 192.778C186.016 192.726 186.12 192.648 186.225 192.569Z" fill="white" style="fill:white;fill-opacity:1;"/>
<path d="M182.699 193.823L182.282 194.188L180.976 193.823L181.472 193.379L182.726 193.797L182.699 193.823ZM183.953 195.259C183.666 195.52 183.378 195.65 183.091 195.65C182.804 195.65 182.569 195.546 182.334 195.285C182.099 195.024 182.021 194.763 182.047 194.475C182.073 194.188 182.256 193.927 182.543 193.666L183.065 193.222L182.464 192.543L182.908 192.152L184.919 194.449L183.953 195.285V195.259ZM182.856 194.032C182.699 194.188 182.595 194.319 182.569 194.475C182.543 194.632 182.595 194.789 182.726 194.919C182.856 195.076 182.987 195.128 183.143 195.128C183.3 195.128 183.457 195.05 183.613 194.893L184.136 194.449L183.352 193.562L182.83 194.005L182.856 194.032Z" fill="white" style="fill:white;fill-opacity:1;"/>
<path d="M182.464 196.538L182.02 196.904L180.088 194.554L180.532 194.188L182.464 196.538Z" fill="white" style="fill:white;fill-opacity:1;"/>
<path d="M180.611 198.027L180.141 198.392L177.242 196.773L177.739 196.382L180.036 197.713L179.331 195.154L179.827 194.789L180.611 198.027ZM179.958 196.12L178.522 197.217L178.235 196.852L179.671 195.755L179.958 196.12Z" fill="white" style="fill:white;fill-opacity:1;"/>
<path d="M176.668 200.873C176.485 201.003 176.276 201.082 176.067 201.134C175.858 201.186 175.675 201.186 175.467 201.134C175.258 201.082 175.101 201.029 174.918 200.925C174.762 200.821 174.605 200.664 174.474 200.481C174.344 200.298 174.265 200.116 174.239 199.907C174.213 199.698 174.213 199.515 174.239 199.332C174.292 199.149 174.37 198.967 174.474 198.784C174.605 198.601 174.762 198.471 174.944 198.34L175.989 197.635L177.686 200.168L176.642 200.873H176.668ZM175.232 198.758C175.127 198.836 175.023 198.941 174.944 199.045C174.866 199.149 174.814 199.28 174.814 199.384C174.814 199.489 174.814 199.646 174.814 199.776C174.84 199.907 174.892 200.037 174.97 200.168C175.049 200.298 175.153 200.403 175.258 200.481C175.362 200.559 175.493 200.612 175.623 200.638C175.754 200.664 175.884 200.664 176.015 200.638C176.145 200.612 176.276 200.559 176.38 200.481L176.929 200.116L175.78 198.392L175.205 198.784L175.232 198.758Z" fill="white" style="fill:white;fill-opacity:1;"/>
<path d="M174.814 202.048L174.318 202.361L172.725 199.776L173.221 199.463L174.814 202.048Z" fill="white" style="fill:white;fill-opacity:1;"/>
<path d="M171.263 203.223C171.419 203.249 171.576 203.275 171.733 203.223C171.889 203.223 172.046 203.144 172.177 203.066C172.307 202.988 172.412 202.909 172.49 202.779C172.568 202.674 172.62 202.544 172.673 202.413C172.699 202.283 172.725 202.152 172.699 202.022C172.699 201.891 172.647 201.761 172.568 201.63C172.49 201.499 172.412 201.395 172.281 201.317C172.177 201.238 172.046 201.16 171.915 201.134C171.785 201.108 171.654 201.082 171.498 201.108C171.341 201.134 171.237 201.16 171.106 201.238C170.975 201.317 170.871 201.395 170.767 201.526C170.662 201.656 170.584 201.787 170.532 201.917L170.035 201.734C170.088 201.604 170.166 201.499 170.244 201.369C170.323 201.238 170.427 201.134 170.532 201.029C170.636 200.925 170.767 200.847 170.871 200.768C171.08 200.664 171.263 200.586 171.472 200.559C171.68 200.533 171.889 200.559 172.072 200.586C172.281 200.638 172.464 200.716 172.62 200.847C172.777 200.977 172.934 201.134 173.038 201.317C173.143 201.499 173.221 201.708 173.221 201.917C173.221 202.126 173.221 202.309 173.169 202.518C173.117 202.727 173.012 202.909 172.882 203.066C172.751 203.223 172.568 203.379 172.385 203.484C172.255 203.562 172.124 203.614 171.968 203.667C171.837 203.719 171.68 203.745 171.524 203.745C171.367 203.745 171.237 203.745 171.106 203.719L171.184 203.197L171.263 203.223ZM171.08 202.492L170.636 202.753L170.062 201.761L170.505 201.499L171.08 202.492Z" fill="white" style="fill:white;fill-opacity:1;"/>
<path d="M170.714 204.424L170.192 204.685L168.782 201.995L169.304 201.734L170.714 204.424Z" fill="white" style="fill:white;fill-opacity:1;"/>
<path d="M169.774 204.92L167.555 206.017L167.346 205.573L168.208 205.155L167.085 202.857L167.607 202.596L168.73 204.894L169.592 204.476L169.801 204.92H169.774Z" fill="white" style="fill:white;fill-opacity:1;"/>
<path d="M166.484 206.487L165.936 206.722L163.508 204.476L164.082 204.215L166.014 206.043L165.936 203.38L166.484 203.145V206.461V206.487ZM166.301 204.476L164.63 205.207L164.448 204.763L166.119 204.032L166.301 204.476Z" fill="white" style="fill:white;fill-opacity:1;"/>
<path d="M164.291 207.427L163.743 207.636L162.803 205.259L161.576 205.729L161.393 205.259L163.168 204.554L164.291 207.401V207.427Z" fill="white" style="fill:white;fill-opacity:1;"/>
<path d="M157.424 209.803L156.876 209.96L156.04 207.035L156.588 206.878L157.424 209.803Z" fill="white" style="fill:white;fill-opacity:1;"/>
<path d="M154.839 210.482C154.604 210.534 154.395 210.56 154.186 210.534C153.978 210.534 153.795 210.456 153.638 210.351C153.481 210.247 153.325 210.116 153.194 209.959C153.064 209.803 152.985 209.62 152.933 209.385C152.881 209.176 152.881 208.967 152.907 208.758C152.933 208.549 153.011 208.367 153.116 208.21C153.22 208.053 153.351 207.897 153.534 207.792C153.716 207.662 153.899 207.583 154.134 207.531L155.335 207.244L156.066 210.194L154.839 210.508V210.482ZM154.213 208.001C154.082 208.027 153.951 208.079 153.847 208.158C153.743 208.236 153.664 208.341 153.586 208.445C153.534 208.549 153.481 208.68 153.455 208.811C153.455 208.941 153.455 209.098 153.455 209.228C153.481 209.385 153.56 209.516 153.638 209.62C153.716 209.724 153.821 209.829 153.925 209.881C154.03 209.959 154.16 209.986 154.291 210.012C154.421 210.038 154.552 210.012 154.709 210.012L155.361 209.855L154.865 207.844L154.186 208.001H154.213Z" fill="white" style="fill:white;fill-opacity:1;"/>
<path d="M152.698 210.978L150.505 211.395L150.4 210.925L152.019 210.612L151.863 209.829L150.4 210.116L150.296 209.646L151.758 209.359L151.601 208.575L149.93 208.915L149.826 208.445L152.071 208.001L152.646 210.978H152.698Z" fill="white" style="fill:white;fill-opacity:1;"/>
<path d="M148.807 211.683L148.207 211.761L146.457 208.941L147.084 208.837L148.442 211.108L149.068 208.523L149.669 208.445L148.781 211.657L148.807 211.683ZM149.147 209.725L147.345 209.986L147.267 209.516L149.068 209.255L149.147 209.725Z" fill="white" style="fill:white;fill-opacity:1;"/>
<path d="M146.431 212.022L145.857 212.075L145.596 209.542L144.29 209.672L144.238 209.176L146.118 208.967L146.431 211.996V212.022Z" fill="white" style="fill:white;fill-opacity:1;"/>
<path d="M141.627 212.884H141.209L141.026 208.889H141.444L141.627 212.884Z" fill="white" style="fill:white;fill-opacity:1;"/>
<path d="M136.927 212.492H136.326L135.073 209.411H135.7L136.666 211.918L137.736 209.489H138.337L136.927 212.518V212.492ZM137.606 210.586L135.804 210.534V210.064L137.632 210.116V210.586H137.606Z" fill="white" style="fill:white;fill-opacity:1;"/>
<path d="M132.697 211.526C132.801 211.604 132.906 211.657 133.01 211.709C133.114 211.761 133.219 211.787 133.323 211.813C133.428 211.813 133.506 211.866 133.584 211.866C133.715 211.866 133.819 211.866 133.924 211.813C134.002 211.761 134.054 211.683 134.054 211.604C134.054 211.5 134.054 211.422 133.976 211.369C133.924 211.317 133.846 211.265 133.741 211.213C133.637 211.161 133.532 211.134 133.428 211.082C133.323 211.03 133.193 211.004 133.088 210.952C132.984 210.899 132.879 210.847 132.775 210.769C132.671 210.691 132.618 210.612 132.566 210.508C132.514 210.403 132.488 210.273 132.514 210.116C132.514 209.933 132.592 209.777 132.697 209.646C132.801 209.516 132.958 209.437 133.141 209.359C133.323 209.307 133.532 209.281 133.741 209.281C133.898 209.281 134.054 209.333 134.211 209.385C134.368 209.437 134.498 209.516 134.629 209.594C134.759 209.672 134.89 209.777 134.994 209.881L134.707 210.351C134.603 210.247 134.498 210.168 134.394 210.09C134.289 210.012 134.159 209.959 134.028 209.907C133.898 209.855 133.793 209.829 133.689 209.829C133.532 209.829 133.402 209.829 133.297 209.907C133.193 209.959 133.141 210.064 133.141 210.168C133.141 210.273 133.141 210.351 133.219 210.403C133.271 210.456 133.349 210.508 133.454 210.56C133.558 210.612 133.663 210.638 133.767 210.691C133.872 210.743 134.002 210.769 134.107 210.821C134.211 210.873 134.316 210.926 134.42 211.004C134.524 211.082 134.577 211.161 134.629 211.265C134.681 211.369 134.707 211.5 134.681 211.657C134.681 211.839 134.603 211.97 134.498 212.101C134.394 212.231 134.263 212.309 134.081 212.362C133.898 212.414 133.715 212.44 133.48 212.44C133.271 212.44 133.088 212.388 132.906 212.309C132.723 212.231 132.566 212.153 132.409 212.048L132.671 211.578L132.697 211.526Z" fill="white" style="fill:white;fill-opacity:1;"/>
<path d="M129.929 211.239C130.034 211.317 130.138 211.396 130.242 211.448C130.347 211.5 130.451 211.552 130.556 211.578C130.66 211.605 130.739 211.631 130.817 211.631C130.947 211.631 131.052 211.631 131.156 211.578C131.235 211.526 131.287 211.474 131.313 211.37C131.313 211.265 131.313 211.187 131.261 211.135C131.209 211.082 131.13 211.004 131.052 210.978C130.947 210.926 130.869 210.873 130.739 210.847C130.634 210.795 130.504 210.743 130.399 210.691C130.295 210.638 130.19 210.56 130.086 210.482C130.007 210.403 129.929 210.299 129.877 210.195C129.825 210.09 129.825 209.96 129.825 209.803C129.825 209.62 129.903 209.463 130.034 209.333C130.138 209.202 130.295 209.124 130.477 209.072C130.66 209.02 130.869 208.993 131.078 209.02C131.235 209.02 131.391 209.072 131.548 209.124C131.705 209.176 131.835 209.255 131.966 209.333C132.096 209.411 132.201 209.516 132.305 209.62L132.018 210.064C131.914 209.96 131.809 209.855 131.705 209.777C131.6 209.698 131.47 209.62 131.365 209.594C131.235 209.542 131.13 209.516 131.026 209.516C130.869 209.516 130.739 209.516 130.634 209.568C130.53 209.62 130.477 209.698 130.477 209.829C130.477 209.933 130.477 210.012 130.53 210.064C130.582 210.116 130.66 210.195 130.739 210.247C130.817 210.299 130.921 210.351 131.052 210.377C131.182 210.403 131.287 210.456 131.391 210.534C131.496 210.586 131.6 210.665 131.705 210.717C131.783 210.795 131.861 210.873 131.914 210.978C131.966 211.082 131.966 211.213 131.966 211.37C131.966 211.552 131.887 211.683 131.783 211.813C131.679 211.944 131.522 212.022 131.365 212.075C131.182 212.127 131 212.153 130.765 212.127C130.556 212.127 130.373 212.048 130.19 211.97C130.007 211.892 129.851 211.787 129.72 211.683L130.007 211.239H129.929Z" fill="white" style="fill:white;fill-opacity:1;"/>
<path d="M128.937 211.892L126.718 211.552L126.796 211.082L128.415 211.317L128.519 210.534L127.057 210.325L127.135 209.855L128.598 210.064L128.728 209.281L127.057 209.02L127.135 208.55L129.407 208.889L128.963 211.892H128.937Z" fill="white" style="fill:white;fill-opacity:1;"/>
<path d="M124.263 210.325C124.367 210.403 124.446 210.482 124.55 210.56C124.654 210.612 124.759 210.664 124.837 210.717C124.942 210.743 125.02 210.769 125.098 210.795C125.229 210.795 125.333 210.795 125.438 210.795C125.516 210.769 125.594 210.69 125.594 210.586C125.594 210.508 125.594 210.403 125.542 210.351C125.49 210.273 125.438 210.22 125.333 210.168C125.229 210.116 125.151 210.064 125.046 210.012C124.942 209.959 124.837 209.907 124.733 209.829C124.628 209.75 124.524 209.698 124.446 209.62C124.367 209.542 124.315 209.437 124.263 209.333C124.237 209.228 124.211 209.098 124.263 208.941C124.289 208.758 124.367 208.602 124.498 208.497C124.628 208.393 124.785 208.314 124.968 208.262C125.151 208.21 125.359 208.236 125.568 208.262C125.725 208.288 125.882 208.34 126.012 208.419C126.169 208.497 126.299 208.575 126.404 208.68C126.534 208.784 126.639 208.889 126.717 208.993L126.378 209.411C126.299 209.307 126.195 209.202 126.091 209.098C125.986 208.993 125.882 208.941 125.751 208.863C125.647 208.81 125.516 208.758 125.412 208.732C125.255 208.706 125.124 208.732 125.02 208.732C124.916 208.784 124.863 208.863 124.837 208.967C124.837 209.072 124.837 209.15 124.889 209.202C124.942 209.28 124.994 209.333 125.098 209.385C125.177 209.437 125.281 209.489 125.386 209.542C125.49 209.594 125.594 209.646 125.699 209.724C125.803 209.777 125.908 209.855 125.986 209.933C126.064 210.012 126.143 210.116 126.169 210.22C126.195 210.325 126.221 210.455 126.169 210.612C126.143 210.795 126.064 210.925 125.934 211.03C125.803 211.134 125.673 211.213 125.49 211.239C125.307 211.265 125.098 211.265 124.889 211.239C124.681 211.213 124.498 211.134 124.315 211.03C124.132 210.925 123.976 210.821 123.871 210.717L124.184 210.299L124.263 210.325Z" fill="white" style="fill:white;fill-opacity:1;"/>
<path d="M121.548 209.698C121.626 209.777 121.73 209.855 121.835 209.933C121.939 210.012 122.018 210.064 122.122 210.09C122.226 210.142 122.305 210.168 122.383 210.168C122.514 210.194 122.618 210.194 122.723 210.168C122.827 210.142 122.879 210.064 122.905 209.959C122.905 209.881 122.905 209.777 122.879 209.724C122.827 209.646 122.775 209.594 122.696 209.542C122.618 209.489 122.514 209.411 122.409 209.359C122.305 209.307 122.2 209.228 122.096 209.176C121.991 209.124 121.913 209.019 121.835 208.941C121.756 208.863 121.704 208.758 121.678 208.628C121.652 208.497 121.652 208.367 121.678 208.236C121.73 208.053 121.809 207.897 121.939 207.792C122.07 207.688 122.226 207.609 122.409 207.583C122.592 207.557 122.801 207.583 123.01 207.609C123.166 207.636 123.323 207.714 123.454 207.792C123.584 207.871 123.715 207.949 123.845 208.053C123.976 208.158 124.054 208.262 124.159 208.393L123.819 208.811C123.741 208.706 123.636 208.576 123.558 208.497C123.454 208.393 123.349 208.314 123.245 208.262C123.14 208.21 123.036 208.158 122.931 208.132C122.775 208.106 122.644 208.106 122.54 208.132C122.435 208.184 122.383 208.262 122.357 208.367C122.357 208.471 122.357 208.549 122.383 208.602C122.409 208.654 122.488 208.732 122.566 208.784C122.644 208.837 122.749 208.915 122.853 208.967C122.958 209.019 123.062 209.098 123.166 209.15C123.271 209.202 123.349 209.307 123.454 209.385C123.532 209.463 123.584 209.568 123.636 209.672C123.663 209.777 123.663 209.907 123.636 210.064C123.584 210.247 123.506 210.377 123.401 210.482C123.271 210.586 123.114 210.664 122.958 210.691C122.775 210.717 122.566 210.691 122.357 210.664C122.148 210.612 121.965 210.534 121.809 210.456C121.626 210.351 121.495 210.247 121.365 210.116L121.704 209.698H121.548Z" fill="white" style="fill:white;fill-opacity:1;"/>
<path d="M119.119 209.855C118.91 209.803 118.701 209.698 118.544 209.568C118.387 209.437 118.231 209.281 118.126 209.098C118.022 208.915 117.97 208.732 117.944 208.523C117.917 208.314 117.944 208.106 117.996 207.897C118.048 207.688 118.152 207.505 118.283 207.348C118.414 207.192 118.57 207.061 118.753 206.957C118.936 206.852 119.119 206.8 119.327 206.774C119.536 206.748 119.745 206.774 119.98 206.826C120.189 206.878 120.398 206.983 120.555 207.113C120.711 207.244 120.868 207.401 120.946 207.583C121.051 207.766 121.103 207.949 121.129 208.158C121.155 208.367 121.129 208.576 121.077 208.784C121.025 208.993 120.92 209.176 120.79 209.333C120.659 209.489 120.502 209.62 120.32 209.724C120.137 209.829 119.954 209.881 119.745 209.907C119.536 209.933 119.327 209.907 119.092 209.855H119.119ZM119.249 209.385C119.38 209.437 119.51 209.437 119.667 209.411C119.797 209.411 119.928 209.359 120.059 209.281C120.189 209.202 120.267 209.124 120.372 209.019C120.45 208.915 120.529 208.784 120.555 208.628C120.607 208.471 120.607 208.341 120.581 208.21C120.581 208.079 120.529 207.949 120.45 207.818C120.372 207.688 120.294 207.583 120.189 207.505C120.085 207.427 119.954 207.348 119.824 207.322C119.693 207.296 119.562 207.27 119.432 207.296C119.301 207.322 119.171 207.348 119.066 207.427C118.962 207.505 118.857 207.583 118.753 207.688C118.675 207.792 118.596 207.923 118.57 208.079C118.518 208.236 118.518 208.367 118.544 208.497C118.544 208.628 118.596 208.758 118.675 208.889C118.727 209.019 118.831 209.098 118.936 209.202C119.04 209.281 119.171 209.359 119.301 209.385H119.249Z" fill="white" style="fill:white;fill-opacity:1;"/>
<path d="M115.777 208.758C115.411 208.628 115.15 208.445 114.994 208.21C114.837 207.975 114.837 207.688 114.941 207.374C115.046 207.035 115.229 206.826 115.516 206.722C115.777 206.617 116.09 206.617 116.482 206.722L117.135 206.93L117.422 206.069L117.97 206.252L116.978 209.124L115.777 208.706V208.758ZM116.299 207.218C116.09 207.139 115.908 207.139 115.777 207.218C115.62 207.27 115.516 207.4 115.464 207.583C115.411 207.766 115.411 207.923 115.49 208.053C115.568 208.184 115.725 208.288 115.934 208.34L116.586 208.575L116.952 207.479L116.299 207.27V207.218ZM116.404 206.957L115.855 206.774L115.516 205.468L116.143 205.677L116.404 206.957Z" fill="white" style="fill:white;fill-opacity:1;"/>
<path d="M113.923 208.106L113.374 207.897L114.445 205.051L114.993 205.259L113.923 208.106Z" fill="white" style="fill:white;fill-opacity:1;"/>
<path d="M111.729 207.244L111.181 207.009V203.693C111.155 203.693 111.729 203.928 111.729 203.928V206.591L113.583 204.711L114.158 204.946L111.755 207.244H111.729ZM113.061 205.73L111.39 205.025L111.573 204.581L113.244 205.286L113.061 205.73Z" fill="white" style="fill:white;fill-opacity:1;"/>
<path d="M107.291 205.207C107.082 205.103 106.899 204.972 106.768 204.816C106.638 204.659 106.533 204.502 106.455 204.319C106.377 204.137 106.377 203.954 106.377 203.745C106.377 203.536 106.455 203.353 106.533 203.144C106.638 202.935 106.768 202.779 106.899 202.648C107.056 202.518 107.212 202.413 107.421 202.361C107.604 202.309 107.813 202.283 108.022 202.309C108.231 202.309 108.439 202.387 108.648 202.492L109.771 203.04L108.413 205.755L107.291 205.181V205.207ZM108.413 202.909C108.283 202.857 108.152 202.805 108.022 202.805C107.891 202.805 107.761 202.805 107.656 202.857C107.526 202.909 107.421 202.962 107.317 203.066C107.212 203.144 107.134 203.275 107.056 203.405C106.977 203.536 106.951 203.693 106.925 203.823C106.925 203.954 106.925 204.084 106.977 204.215C107.003 204.345 107.082 204.45 107.16 204.554C107.238 204.659 107.343 204.737 107.473 204.789L108.074 205.077L109.014 203.223L108.387 202.909H108.413Z" fill="white" style="fill:white;fill-opacity:1;"/>
<path d="M105.332 204.215L104.81 203.928L106.272 201.264L106.795 201.552L105.332 204.215Z" fill="white" style="fill:white;fill-opacity:1;"/>
<path d="M102.564 201.682C102.617 201.839 102.669 201.97 102.773 202.1C102.878 202.231 102.982 202.335 103.113 202.413C103.243 202.492 103.374 202.544 103.504 202.544C103.635 202.544 103.766 202.544 103.896 202.518C104.027 202.492 104.157 202.413 104.262 202.335C104.366 202.257 104.471 202.152 104.549 202.022C104.627 201.891 104.679 201.761 104.706 201.63C104.706 201.5 104.706 201.343 104.706 201.212C104.706 201.082 104.627 200.951 104.523 200.847C104.418 200.742 104.34 200.638 104.209 200.559C104.105 200.481 103.948 200.429 103.792 200.403C103.635 200.377 103.478 200.377 103.322 200.403L103.243 199.881C103.374 199.881 103.504 199.881 103.661 199.881C103.818 199.881 103.948 199.933 104.105 199.985C104.262 200.037 104.366 200.089 104.497 200.168C104.706 200.272 104.862 200.429 104.993 200.586C105.123 200.742 105.202 200.925 105.254 201.134C105.306 201.343 105.332 201.526 105.306 201.734C105.28 201.943 105.202 202.126 105.097 202.335C104.993 202.518 104.836 202.675 104.679 202.805C104.523 202.936 104.34 203.014 104.131 203.066C103.922 203.118 103.713 203.118 103.504 203.066C103.296 203.04 103.087 202.962 102.878 202.831C102.747 202.753 102.643 202.675 102.538 202.57C102.434 202.466 102.329 202.361 102.251 202.231C102.173 202.1 102.121 201.996 102.068 201.865L102.564 201.682ZM103.113 201.16L102.669 200.899L103.243 199.907L103.687 200.168L103.113 201.16Z" fill="white" style="fill:white;fill-opacity:1;"/>
<path d="M101.259 201.813L100.763 201.5L102.408 198.941L102.904 199.254L101.259 201.813Z" fill="white" style="fill:white;fill-opacity:1;"/>
<path d="M100.345 201.238L98.2822 199.855L98.5695 199.437L99.3528 199.959L100.789 197.844L101.285 198.183L99.8489 200.298L100.632 200.821L100.345 201.238Z" fill="white" style="fill:white;fill-opacity:1;"/>
<path d="M97.3684 199.176L96.8984 198.81L97.6557 195.572L98.1518 195.938L97.499 198.523L99.7707 197.139L100.267 197.504L97.3684 199.149V199.176ZM99.0134 198.027L97.5512 196.956L97.8384 196.564L99.3007 197.635L99.0134 198.027Z" fill="white" style="fill:white;fill-opacity:1;"/>
<path d="M95.4622 197.739L95.0183 197.374L96.6111 195.389L95.5928 194.554L95.9061 194.162L97.3944 195.363L95.4883 197.739H95.4622Z" fill="white" style="fill:white;fill-opacity:1;"/>
<path d="M89.9788 192.935L89.561 192.517L91.7021 190.35L92.1199 190.768L89.9788 192.935Z" fill="white" style="fill:white;fill-opacity:1;"/>
<path d="M88.0989 191.055C87.9422 190.898 87.8116 190.716 87.7333 190.507C87.655 190.298 87.6028 190.115 87.6289 189.932C87.6289 189.723 87.6811 189.541 87.7594 189.358C87.8378 189.175 87.9683 188.992 88.125 188.862C88.2816 188.705 88.4644 188.601 88.6472 188.522C88.83 188.444 89.0389 188.418 89.2216 188.418C89.4305 188.418 89.6133 188.47 89.7961 188.574C89.9789 188.653 90.1616 188.783 90.3183 188.966L91.18 189.88L88.9866 191.995L88.125 191.081L88.0989 191.055ZM89.9527 189.279C89.8483 189.175 89.7439 189.097 89.6394 189.044C89.5089 188.992 89.4044 188.966 89.2739 188.966C89.1433 188.966 89.0127 188.966 88.8822 189.044C88.7516 189.097 88.6472 189.175 88.5166 189.279C88.4122 189.384 88.3339 189.488 88.2555 189.619C88.2033 189.749 88.1772 189.88 88.1511 190.011C88.1511 190.141 88.1511 190.272 88.2033 190.402C88.2555 190.533 88.3339 190.637 88.4383 190.742L88.9083 191.238L90.3966 189.802L89.9266 189.306L89.9527 189.279Z" fill="white" style="fill:white;fill-opacity:1;"/>
<path d="M86.5845 189.436L85.1223 187.739L85.4879 187.425L86.5584 188.679L87.159 188.157L86.1929 187.034L86.5584 186.72L87.5245 187.843L88.1251 187.321L87.0023 186.042L87.3679 185.728L88.8562 187.452L86.5584 189.462L86.5845 189.436Z" fill="white" style="fill:white;fill-opacity:1;"/>
<path d="M84.0516 186.407L83.686 185.937L85.2527 183.013L85.6444 183.509L84.3388 185.833L86.8977 185.102L87.2633 185.572L84.0516 186.407ZM85.9316 185.728L84.8088 184.318L85.1744 184.031L86.2971 185.441L85.9316 185.728Z" fill="white" style="fill:white;fill-opacity:1;"/>
<path d="M82.5894 184.527L82.25 184.057L84.3128 182.569L83.5294 181.498L83.9211 181.211L85.0439 182.752L82.5894 184.553V184.527Z" fill="white" style="fill:white;fill-opacity:1;"/>
<path d="M79.4303 180.793L79.1953 180.428L82.5898 178.26L82.8248 178.626L79.4303 180.793Z" fill="white" style="fill:white;fill-opacity:1;"/>
<path d="M77.4457 176.511L77.1584 175.989L79.1951 173.378L79.4823 173.926L77.8112 175.989L80.4484 175.702L80.7357 176.224L77.4196 176.511H77.4457ZM79.4301 176.172L78.5684 174.579L78.9862 174.344L79.8479 175.937L79.4301 176.172Z" fill="white" style="fill:white;fill-opacity:1;"/>
<path d="M76.1661 172.386C76.1661 172.516 76.1661 172.647 76.1661 172.751C76.1661 172.882 76.1922 172.986 76.2183 173.064C76.2444 173.169 76.2705 173.247 76.3227 173.326C76.375 173.456 76.4533 173.534 76.5316 173.587C76.61 173.639 76.7144 173.639 76.7927 173.587C76.8711 173.534 76.9233 173.482 76.9494 173.404C76.9755 173.326 76.9755 173.221 76.9494 173.117C76.9494 173.012 76.9494 172.908 76.8972 172.777C76.845 172.647 76.8711 172.542 76.845 172.412C76.845 172.281 76.845 172.177 76.845 172.046C76.845 171.942 76.8972 171.811 76.9755 171.733C77.0538 171.628 77.1583 171.55 77.2888 171.472C77.4455 171.393 77.6283 171.367 77.785 171.393C77.9416 171.419 78.0983 171.498 78.255 171.628C78.4116 171.759 78.5161 171.916 78.6205 172.124C78.6988 172.281 78.7511 172.412 78.7772 172.568C78.8033 172.725 78.8294 172.882 78.8033 173.038C78.8033 173.195 78.8033 173.352 78.7511 173.482H78.2288C78.2811 173.326 78.2811 173.195 78.3072 173.064C78.3333 172.934 78.3072 172.803 78.3072 172.673C78.3072 172.542 78.255 172.438 78.2027 172.333C78.1244 172.177 78.0461 172.072 77.9416 172.02C77.8372 171.968 77.7327 171.968 77.6283 172.02C77.55 172.072 77.4977 172.124 77.4716 172.203C77.4716 172.281 77.4455 172.386 77.4455 172.464C77.4455 172.568 77.4455 172.673 77.4977 172.803C77.4977 172.934 77.55 173.038 77.55 173.169C77.55 173.299 77.55 173.404 77.55 173.534C77.55 173.639 77.4977 173.769 77.4194 173.848C77.3672 173.952 77.2627 174.031 77.1061 174.109C76.9494 174.187 76.7927 174.213 76.6361 174.187C76.4794 174.161 76.3227 174.083 76.1922 173.952C76.0616 173.822 75.9311 173.665 75.8266 173.456C75.7483 173.273 75.67 173.091 75.6439 172.882C75.6177 172.673 75.6177 172.49 75.6439 172.333H76.1661V172.386Z" fill="white" style="fill:white;fill-opacity:1;"/>
<path d="M75.0437 169.827C75.0437 169.957 75.0437 170.062 75.0437 170.192C75.0437 170.323 75.0437 170.427 75.0959 170.532C75.1481 170.636 75.1481 170.714 75.1743 170.793C75.2265 170.923 75.3048 171.002 75.3831 171.054C75.4615 171.106 75.5398 171.106 75.6442 171.054C75.7226 171.028 75.7748 170.949 75.827 170.871C75.8531 170.793 75.8793 170.714 75.8531 170.61C75.8531 170.505 75.8531 170.401 75.827 170.27C75.827 170.14 75.827 170.035 75.8009 169.905C75.7748 169.774 75.8009 169.67 75.8009 169.539C75.8009 169.435 75.8793 169.33 75.9315 169.226C75.9837 169.122 76.1143 169.043 76.2448 168.991C76.4276 168.913 76.5843 168.887 76.7409 168.939C76.8976 168.991 77.0543 169.069 77.1848 169.2C77.3154 169.33 77.4459 169.487 77.5243 169.696C77.5765 169.853 77.6287 170.009 77.6548 170.166C77.6548 170.323 77.6809 170.479 77.6548 170.636C77.6548 170.793 77.6287 170.949 77.5765 171.08H77.0543C77.1065 170.923 77.1326 170.767 77.1326 170.636C77.1326 170.505 77.1326 170.375 77.1326 170.244C77.1326 170.114 77.0804 170.009 77.0543 169.905C76.9759 169.748 76.8976 169.644 76.8192 169.592C76.7409 169.539 76.6104 169.539 76.5059 169.592C76.4276 169.618 76.3493 169.696 76.3231 169.774C76.297 169.853 76.2709 169.931 76.2709 170.035C76.2709 170.14 76.2709 170.244 76.297 170.375C76.297 170.505 76.3231 170.61 76.3493 170.74C76.3493 170.871 76.3493 170.975 76.3493 171.106C76.3493 171.237 76.2709 171.315 76.2187 171.419C76.1404 171.524 76.0359 171.602 75.9054 171.654C75.7487 171.733 75.592 171.733 75.4354 171.707C75.2787 171.68 75.122 171.602 74.9915 171.472C74.8609 171.341 74.7565 171.184 74.652 170.975C74.5737 170.793 74.5215 170.584 74.4954 170.401C74.4954 170.192 74.4954 170.009 74.4954 169.853H75.0176L75.0437 169.827Z" fill="white" style="fill:white;fill-opacity:1;"/>
<path d="M73.9991 169.278L73.1897 167.189L73.6336 167.007L74.2341 168.547L74.9653 168.26L74.4169 166.876L74.8608 166.693L75.4091 168.077L76.1664 167.79L75.5397 166.197L75.9836 166.014L76.8191 168.156L73.973 169.252L73.9991 169.278Z" fill="white" style="fill:white;fill-opacity:1;"/>
<path d="M73.0327 164.448C73.0066 164.578 72.9805 164.683 72.9805 164.813C72.9805 164.944 72.9805 165.048 72.9805 165.153C72.9805 165.257 73.0066 165.336 73.0327 165.414C73.0849 165.544 73.1371 165.649 73.2155 165.701C73.2938 165.753 73.3721 165.779 73.4766 165.753C73.5549 165.727 73.6333 165.675 73.6594 165.597C73.6855 165.518 73.7116 165.44 73.7116 165.336C73.7116 165.231 73.7116 165.127 73.7116 164.996C73.7116 164.866 73.7116 164.761 73.7116 164.631C73.7116 164.5 73.7116 164.396 73.7638 164.265C73.816 164.134 73.8421 164.056 73.9205 163.952C73.9988 163.873 74.1033 163.795 74.2599 163.743C74.4427 163.691 74.5994 163.691 74.756 163.743C74.9127 163.795 75.0694 163.899 75.1738 164.03C75.3044 164.161 75.4088 164.343 75.461 164.552C75.5133 164.709 75.5394 164.866 75.5655 165.022C75.5655 165.179 75.5655 165.336 75.5655 165.492C75.5655 165.649 75.5133 165.779 75.4349 165.936L74.9127 165.858C74.9649 165.727 75.0171 165.597 75.0433 165.466C75.0433 165.336 75.0694 165.205 75.0694 165.074C75.0694 164.944 75.0694 164.839 75.0171 164.735C74.9649 164.578 74.8866 164.474 74.8083 164.396C74.7299 164.317 74.6255 164.317 74.521 164.343C74.4427 164.369 74.3644 164.422 74.3383 164.5C74.3121 164.578 74.286 164.657 74.286 164.761C74.286 164.866 74.286 164.97 74.286 165.101C74.286 165.231 74.286 165.336 74.286 165.466C74.286 165.597 74.286 165.701 74.2338 165.832C74.2077 165.936 74.1555 166.041 74.0771 166.145C73.9988 166.223 73.8944 166.302 73.7377 166.354C73.581 166.406 73.3983 166.406 73.2677 166.354C73.111 166.302 72.9805 166.223 72.8499 166.067C72.7194 165.936 72.641 165.753 72.5627 165.544C72.4844 165.362 72.4583 165.153 72.4583 164.944C72.4583 164.735 72.4583 164.552 72.5105 164.396L73.0327 164.474V164.448Z" fill="white" style="fill:white;fill-opacity:1;"/>
<path d="M72.2231 161.784C72.197 161.915 72.1709 162.019 72.1448 162.15C72.1448 162.281 72.1448 162.385 72.1448 162.489C72.1448 162.594 72.1709 162.672 72.197 162.751C72.2231 162.881 72.3014 162.986 72.3537 163.038C72.432 163.09 72.5103 163.116 72.6148 163.09C72.6931 163.064 72.7714 163.012 72.7975 162.933C72.8237 162.855 72.8498 162.777 72.8759 162.672C72.8759 162.568 72.8759 162.463 72.8759 162.333C72.8759 162.202 72.8759 162.098 72.8759 161.967C72.8759 161.837 72.902 161.732 72.9542 161.602C72.9803 161.497 73.0587 161.393 73.137 161.314C73.2153 161.236 73.3459 161.158 73.4764 161.132C73.6592 161.079 73.8159 161.079 73.9725 161.132C74.1292 161.184 74.2598 161.288 74.3903 161.445C74.5209 161.602 74.5992 161.784 74.6514 161.993C74.7037 162.15 74.7298 162.307 74.7298 162.463C74.7298 162.62 74.7298 162.777 74.6775 162.933C74.6253 163.09 74.5992 163.221 74.547 163.351L74.0248 163.247C74.077 163.116 74.1292 162.986 74.1553 162.855C74.1814 162.724 74.2075 162.594 74.2075 162.463C74.2075 162.333 74.2075 162.228 74.1553 162.124C74.1031 161.967 74.0509 161.863 73.9464 161.784C73.8681 161.706 73.7637 161.706 73.6592 161.732C73.5548 161.758 73.5025 161.811 73.4503 161.889C73.4242 161.967 73.3981 162.046 73.372 162.15C73.372 162.254 73.372 162.359 73.372 162.489C73.372 162.62 73.372 162.724 73.372 162.855C73.372 162.986 73.3459 163.09 73.3198 163.194C73.2937 163.299 73.2153 163.403 73.137 163.482C73.0587 163.56 72.9281 163.638 72.7975 163.664C72.6409 163.717 72.4581 163.717 72.3275 163.664C72.1709 163.612 72.0403 163.508 71.9359 163.377C71.8314 163.247 71.727 163.064 71.6748 162.829C71.6225 162.646 71.5964 162.437 71.5964 162.228C71.5964 162.019 71.6225 161.837 71.6748 161.68L72.197 161.758L72.2231 161.784Z" fill="white" style="fill:white;fill-opacity:1;"/>
<path d="M70.8656 159.748C70.8134 159.513 70.7873 159.304 70.8395 159.095C70.8656 158.886 70.9439 158.703 71.0484 158.521C71.1528 158.338 71.2834 158.181 71.4401 158.077C71.5967 157.972 71.7795 157.868 72.0145 157.816C72.2234 157.763 72.4323 157.763 72.6412 157.816C72.8501 157.842 73.0328 157.92 73.2156 158.024C73.3984 158.129 73.5289 158.286 73.6595 158.442C73.7901 158.625 73.8684 158.808 73.9206 159.043C73.9728 159.278 73.999 159.487 73.9467 159.696C73.9206 159.904 73.8423 160.087 73.7378 160.27C73.6334 160.453 73.5028 160.609 73.3462 160.714C73.1895 160.844 72.9806 160.923 72.7717 160.975C72.5628 161.027 72.3539 161.027 72.1451 160.975C71.9362 160.949 71.7534 160.871 71.5706 160.766C71.3878 160.662 71.2573 160.505 71.1267 160.348C70.9962 160.166 70.9178 159.983 70.8656 159.748ZM71.3617 159.617C71.3878 159.748 71.4662 159.878 71.5445 159.983C71.6228 160.087 71.7273 160.192 71.8317 160.244C71.9362 160.322 72.0667 160.348 72.2234 160.374C72.3539 160.374 72.5106 160.374 72.6412 160.374C72.7978 160.348 72.9284 160.27 73.0328 160.192C73.1373 160.113 73.2417 160.009 73.3201 159.878C73.3984 159.774 73.4506 159.643 73.4767 159.513C73.4767 159.382 73.4767 159.252 73.4767 159.121C73.4506 158.991 73.3984 158.86 73.294 158.756C73.2156 158.651 73.1112 158.573 72.9806 158.494C72.8501 158.416 72.7456 158.39 72.5889 158.364C72.4584 158.364 72.3017 158.364 72.1712 158.364C72.0145 158.39 71.8839 158.468 71.7795 158.547C71.6751 158.625 71.5706 158.729 71.4923 158.834C71.4139 158.938 71.3617 159.069 71.3617 159.199C71.3617 159.33 71.3617 159.461 71.3617 159.591V159.617Z" fill="white" style="fill:white;fill-opacity:1;"/>
<path d="M70.1609 156.301C70.0826 155.909 70.1087 155.596 70.2654 155.361C70.3959 155.126 70.6309 154.97 70.9704 154.891C71.3098 154.839 71.5971 154.891 71.8321 155.048C72.0671 155.231 72.2237 155.492 72.2759 155.883L72.4065 156.562L73.2943 156.38L73.3987 156.954L70.3959 157.528L70.1609 156.275V156.301ZM71.7798 155.988C71.7276 155.779 71.6493 155.622 71.5448 155.518C71.4143 155.413 71.2576 155.387 71.0748 155.44C70.892 155.466 70.7615 155.57 70.6832 155.701C70.6048 155.831 70.6048 156.014 70.6309 156.223L70.7615 156.902L71.9104 156.693L71.7798 156.014V155.988ZM72.0409 155.962L71.9365 155.413L72.9026 154.473L73.0332 155.126L72.0409 155.988V155.962Z" fill="white" style="fill:white;fill-opacity:1;"/>
<path d="M69.821 154.395L69.7427 153.821L72.7455 153.351L72.8238 153.925L69.821 154.395Z" fill="white" style="fill:white;fill-opacity:1;"/>
<path d="M69.4819 152.045L69.4036 151.445L72.2758 149.773L72.3541 150.4L70.0302 151.706L72.5891 152.411L72.6675 153.011L69.4819 152.045ZM71.4402 152.437L71.2052 150.635L71.6752 150.583L71.9102 152.385L71.4402 152.437Z" fill="white" style="fill:white;fill-opacity:1;"/>
<path d="M69.0378 147.162C69.0378 146.927 69.0378 146.718 69.1162 146.51C69.1945 146.301 69.2728 146.144 69.4034 145.987C69.534 145.831 69.6906 145.726 69.8734 145.622C70.0562 145.543 70.2651 145.491 70.474 145.465C70.6828 145.465 70.8917 145.465 71.1006 145.543C71.2834 145.622 71.4662 145.7 71.5967 145.857C71.7534 145.987 71.8578 146.144 71.9362 146.353C72.0145 146.536 72.0667 146.771 72.0928 146.98L72.1712 148.233L69.1423 148.416L69.064 147.162H69.0378ZM71.5967 147.006C71.5967 146.875 71.5445 146.745 71.4923 146.614C71.4401 146.51 71.3617 146.405 71.2573 146.327C71.1528 146.248 71.0484 146.17 70.9178 146.144C70.7873 146.092 70.6567 146.092 70.5001 146.092C70.3434 146.092 70.2128 146.144 70.0823 146.196C69.9517 146.248 69.8473 146.327 69.769 146.431C69.6906 146.536 69.6123 146.64 69.5601 146.771C69.5078 146.901 69.5078 147.032 69.5078 147.162V147.841C69.534 147.841 71.6228 147.737 71.6228 147.737V147.032L71.5967 147.006Z" fill="white" style="fill:white;fill-opacity:1;"/>
<path d="M68.9333 144.995V144.421L71.9622 144.342V144.917L68.9333 144.995Z" fill="white" style="fill:white;fill-opacity:1;"/>
<path d="M69.7428 141.313C69.6384 141.418 69.5339 141.548 69.4817 141.705C69.4295 141.862 69.3772 142.018 69.3772 142.175C69.3772 142.332 69.3772 142.462 69.4556 142.593C69.5078 142.723 69.5861 142.828 69.6906 142.932C69.795 143.037 69.8995 143.115 70.03 143.167C70.1606 143.219 70.2911 143.246 70.4478 143.246C70.6045 143.246 70.735 143.246 70.8656 143.167C70.9961 143.115 71.1006 143.037 71.205 142.958C71.3095 142.88 71.3878 142.749 71.44 142.619C71.4922 142.488 71.5183 142.358 71.5183 142.201C71.5183 142.071 71.5184 141.914 71.44 141.783C71.3878 141.627 71.3095 141.496 71.2311 141.366L71.6489 141.026C71.7272 141.131 71.8056 141.261 71.8578 141.392C71.91 141.522 71.9622 141.679 71.9884 141.809C72.0145 141.94 72.0406 142.097 72.0406 142.227C72.0406 142.462 71.9883 142.671 71.91 142.854C71.8317 143.037 71.7011 143.219 71.5706 143.35C71.4139 143.507 71.2572 143.611 71.0745 143.689C70.8917 143.768 70.6828 143.794 70.4478 143.794C70.2389 143.794 70.03 143.742 69.8472 143.663C69.6645 143.585 69.5078 143.454 69.3511 143.298C69.2206 143.141 69.1161 142.958 69.0378 142.776C68.9595 142.593 68.9333 142.358 68.9333 142.123C68.9333 141.966 68.9334 141.836 68.9856 141.679C69.0378 141.522 69.0639 141.392 69.1422 141.261C69.2206 141.131 69.2989 141.026 69.3772 140.922L69.7689 141.261L69.7428 141.313ZM70.4739 141.548V141.026H71.6228V141.522H70.4739V141.548Z" fill="white" style="fill:white;fill-opacity:1;"/>
<path d="M68.9854 140.243V139.668C69.0115 139.668 72.0665 139.799 72.0665 139.799V140.373C72.0403 140.373 68.9854 140.243 68.9854 140.243Z" fill="white" style="fill:white;fill-opacity:1;"/>
<path d="M69.0115 139.198L69.1942 136.718H69.6903C69.6903 136.744 69.612 137.71 69.612 137.71L72.1709 137.893L72.1187 138.467L69.5598 138.284L69.4815 139.224H68.9854L69.0115 139.198Z" fill="white" style="fill:white;fill-opacity:1;"/>
<path d="M69.325 135.569L69.4033 134.968L72.5888 134.002L72.5105 134.629L69.9516 135.36L72.2755 136.639L72.1972 137.24L69.325 135.569ZM71.1527 136.431L71.3616 134.629L71.8316 134.681L71.6227 136.483L71.1527 136.431Z" fill="white" style="fill:white;fill-opacity:1;"/>
<path d="M69.6382 133.219L69.7165 132.644L72.2493 133.036L72.4582 131.73L72.9543 131.809L72.6671 133.689L69.6643 133.219H69.6382Z" fill="white" style="fill:white;fill-opacity:1;"/>
<path d="M71.0483 126.064L71.205 125.49L74.1556 126.247L73.9989 126.822L71.0483 126.064Z" fill="white" style="fill:white;fill-opacity:1;"/>
<path d="M71.7535 123.479C71.8318 123.244 71.9102 123.062 72.0407 122.905C72.1713 122.748 72.3018 122.618 72.4846 122.513C72.6674 122.409 72.8501 122.357 73.0329 122.331C73.2418 122.331 73.4507 122.331 73.6596 122.383C73.8685 122.435 74.0513 122.539 74.2079 122.67C74.3646 122.801 74.4952 122.957 74.5735 123.114C74.6518 123.297 74.704 123.479 74.7301 123.688C74.7301 123.897 74.7302 124.106 74.6518 124.341L74.2863 125.542L71.3618 124.681L71.7274 123.479H71.7535ZM74.2079 124.211C74.2601 124.08 74.2601 123.949 74.234 123.819C74.234 123.688 74.1818 123.558 74.1296 123.453C74.0774 123.349 73.9729 123.244 73.8685 123.166C73.764 123.088 73.6335 123.009 73.5029 122.983C73.3463 122.931 73.2157 122.931 73.0852 122.931C72.9546 122.931 72.824 122.983 72.7196 123.036C72.6152 123.088 72.5107 123.166 72.4324 123.271C72.354 123.375 72.3018 123.506 72.2496 123.636L72.0668 124.289L74.0513 124.889L74.2602 124.211H74.2079Z" fill="white" style="fill:white;fill-opacity:1;"/>
<path d="M72.4058 121.365L73.1369 119.25L73.6069 119.406L73.0585 120.973L73.7896 121.234L74.2857 119.824L74.7296 119.981L74.2335 121.391L74.9907 121.652L75.5391 120.033L76.0091 120.19L75.2519 122.357L72.3796 121.365H72.4058Z" fill="white" style="fill:white;fill-opacity:1;"/>
<path d="M73.7639 117.657L73.9989 117.108L77.315 117.03L77.08 117.604H74.4167L76.3228 119.484L76.0878 120.059L73.7639 117.683V117.657ZM75.3045 118.962L75.9834 117.265L76.4273 117.448L75.7484 119.145L75.3045 118.962Z" fill="white" style="fill:white;fill-opacity:1;"/>
<path d="M74.6777 115.463L74.9127 114.941L77.2366 115.986L77.785 114.784L78.2288 114.993L77.4455 116.717L74.6777 115.463Z" fill="white" style="fill:white;fill-opacity:1;"/>
<path d="M76.375 110.868L76.5839 110.476L80.135 112.356L79.9261 112.748L76.375 110.868Z" fill="white" style="fill:white;fill-opacity:1;"/>
<path d="M79.0906 107.03L79.4039 106.533L82.6939 107.003L82.3545 107.526L79.7172 107.108L81.2839 109.249L80.9706 109.771L79.0906 107.03ZM80.37 108.57L81.3361 107.03L81.7278 107.291L80.7617 108.831L80.37 108.57Z" fill="white" style="fill:white;fill-opacity:1;"/>
<path d="M82.0412 103.87C81.9368 103.922 81.8062 103.974 81.7279 104.053C81.6495 104.131 81.5451 104.183 81.4668 104.262C81.3884 104.34 81.3362 104.392 81.284 104.47C81.2057 104.575 81.1795 104.679 81.1534 104.784C81.1534 104.888 81.1795 104.967 81.284 105.019C81.3623 105.071 81.4407 105.097 81.519 105.071C81.5973 105.045 81.6757 105.019 81.7801 104.967C81.8584 104.914 81.9629 104.836 82.0412 104.758C82.1457 104.679 82.224 104.601 82.3284 104.523C82.4329 104.444 82.5373 104.392 82.6418 104.34C82.7462 104.288 82.8768 104.288 82.9812 104.288C83.1118 104.288 83.2162 104.34 83.3468 104.444C83.5034 104.549 83.6079 104.679 83.6601 104.836C83.7123 104.993 83.7123 105.175 83.6601 105.358C83.6079 105.541 83.5295 105.724 83.4251 105.907C83.3207 106.037 83.2162 106.168 83.1118 106.272C82.9812 106.377 82.8507 106.455 82.7201 106.533C82.5895 106.612 82.4329 106.664 82.3023 106.69L82.0412 106.22C82.1718 106.194 82.3023 106.142 82.4329 106.089C82.5634 106.037 82.6679 105.959 82.7723 105.88C82.8768 105.802 82.9551 105.724 83.0073 105.619C83.1118 105.489 83.1379 105.358 83.1379 105.254C83.1379 105.149 83.0857 105.045 82.9812 104.993C82.9029 104.94 82.8245 104.914 82.7462 104.94C82.6679 104.94 82.5895 104.993 82.4851 105.045C82.4068 105.097 82.3023 105.175 82.224 105.254C82.1457 105.332 82.0412 105.41 81.9368 105.489C81.8323 105.567 81.7279 105.619 81.6234 105.672C81.519 105.724 81.4145 105.724 81.284 105.724C81.1534 105.724 81.049 105.672 80.9184 105.567C80.7618 105.463 80.6834 105.332 80.6312 105.202C80.579 105.071 80.579 104.888 80.6312 104.705C80.6573 104.523 80.7618 104.34 80.8923 104.157C80.9968 104 81.1534 103.844 81.3101 103.713C81.4668 103.583 81.6234 103.478 81.7801 103.426L82.0412 103.896V103.87Z" fill="white" style="fill:white;fill-opacity:1;"/>
<path d="M83.7119 101.598C83.5813 101.651 83.4769 101.703 83.3724 101.755C83.268 101.807 83.1896 101.886 83.1113 101.964C83.033 102.042 82.9807 102.095 82.9285 102.173C82.8502 102.277 82.798 102.382 82.798 102.486C82.798 102.591 82.8241 102.669 82.9024 102.721C82.9807 102.773 83.0591 102.8 83.1374 102.773C83.2157 102.773 83.2941 102.721 83.3985 102.669C83.503 102.617 83.5813 102.538 83.6857 102.486C83.7902 102.434 83.8946 102.356 83.973 102.277C84.0774 102.199 84.1819 102.147 84.2863 102.121C84.3907 102.095 84.5213 102.068 84.6257 102.095C84.7302 102.121 84.8607 102.173 84.9913 102.251C85.148 102.356 85.2524 102.512 85.2785 102.669C85.3307 102.826 85.3307 103.008 85.2785 103.191C85.2263 103.374 85.148 103.557 85.0174 103.74C84.913 103.87 84.8085 103.975 84.678 104.079C84.5474 104.183 84.4169 104.262 84.2863 104.34C84.1557 104.418 83.9991 104.445 83.8685 104.497L83.6335 104.027C83.7641 104.001 83.8946 103.948 84.0252 103.896C84.1557 103.844 84.2602 103.766 84.3646 103.687C84.4691 103.609 84.5474 103.531 84.6257 103.452C84.7302 103.322 84.7824 103.191 84.7824 103.087C84.7824 102.982 84.7302 102.878 84.6519 102.826C84.5735 102.773 84.4952 102.747 84.4169 102.747C84.3385 102.747 84.2602 102.8 84.1557 102.852C84.0774 102.904 83.973 102.982 83.8685 103.035C83.7641 103.113 83.6857 103.191 83.5813 103.243C83.4769 103.322 83.3724 103.374 83.268 103.4C83.1635 103.426 83.033 103.452 82.9285 103.452C82.8241 103.452 82.6935 103.374 82.563 103.296C82.4324 103.191 82.328 103.061 82.2757 102.904C82.2235 102.747 82.2235 102.591 82.2757 102.408C82.328 102.225 82.4063 102.042 82.5369 101.86C82.6674 101.703 82.798 101.546 82.9546 101.442C83.1113 101.311 83.268 101.233 83.4507 101.181L83.6857 101.651L83.7119 101.598Z" fill="white" style="fill:white;fill-opacity:1;"/>
<path d="M83.6599 100.423L85.0699 98.7L85.4616 99.0133L84.4171 100.293L85.0177 100.789L85.9577 99.64L86.3232 99.9533L85.3832 101.102L86.0099 101.598L87.0805 100.267L87.4721 100.58L86.036 102.356L83.6599 100.449V100.423Z" fill="white" style="fill:white;fill-opacity:1;"/>
<path d="M87.3678 97.1855C87.2372 97.2117 87.1328 97.2639 87.0283 97.3161C86.9239 97.3683 86.8194 97.4205 86.7411 97.4989C86.6628 97.5511 86.5844 97.6294 86.5322 97.6817C86.4539 97.7861 86.4016 97.8905 86.3755 97.9689C86.3755 98.0733 86.3755 98.1517 86.4539 98.2039C86.5322 98.2561 86.6105 98.2822 86.6889 98.2822C86.7672 98.2822 86.8717 98.2561 86.95 98.2039C87.0544 98.1517 87.1328 98.0994 87.2372 98.0472C87.3417 97.995 87.4461 97.9166 87.5505 97.8644C87.655 97.8122 87.7594 97.76 87.89 97.7339C88.0205 97.7078 88.125 97.7078 88.2294 97.7339C88.3339 97.7339 88.4644 97.8122 88.5689 97.9166C88.6994 98.0472 88.8039 98.1778 88.83 98.3605C88.8561 98.5172 88.83 98.7 88.7778 98.8828C88.7255 99.0655 88.6211 99.2483 88.4644 99.405C88.36 99.5355 88.2294 99.64 88.0989 99.7183C87.9683 99.7966 87.8378 99.875 87.6811 99.9272C87.5244 99.9794 87.3939 100.032 87.2372 100.032L87.0544 99.5355C87.185 99.5355 87.3417 99.4833 87.4722 99.4311C87.6028 99.3789 87.7333 99.3267 87.8378 99.2483C87.9422 99.17 88.0467 99.1178 88.0989 99.0133C88.2033 98.8828 88.2817 98.7783 88.2817 98.6739C88.2817 98.5694 88.2817 98.465 88.1772 98.3866C88.0989 98.3344 88.0205 98.2822 87.9422 98.3083C87.8639 98.3083 87.7594 98.3344 87.6811 98.3866C87.5766 98.4389 87.4983 98.4911 87.3939 98.5694C87.2894 98.6478 87.185 98.7 87.0805 98.7522C86.9761 98.8044 86.8717 98.8567 86.7411 98.8828C86.6367 98.9089 86.5061 98.9089 86.4017 98.8828C86.2972 98.8828 86.1667 98.8044 86.0622 98.7C85.9317 98.5955 85.8533 98.4389 85.8011 98.2822C85.775 98.1255 85.8011 97.9689 85.8272 97.7861C85.8794 97.6033 85.9839 97.4466 86.1405 97.2639C86.2711 97.1072 86.4278 96.9766 86.6105 96.8722C86.7933 96.7678 86.95 96.6894 87.1067 96.6372L87.3155 97.1333L87.3678 97.1855Z" fill="white" style="fill:white;fill-opacity:1;"/>
<path d="M89.3001 95.149C89.1695 95.1751 89.0651 95.2273 88.9606 95.2795C88.8562 95.3317 88.7517 95.384 88.6734 95.4362C88.5951 95.4884 88.5167 95.5406 88.4645 95.619C88.3601 95.7234 88.3078 95.8278 88.2817 95.9062C88.2556 95.9845 88.2817 96.089 88.3601 96.1673C88.4384 96.2195 88.4906 96.2717 88.5951 96.2717C88.6734 96.2717 88.7778 96.2456 88.8562 96.1934C88.9606 96.1412 89.0389 96.089 89.1434 96.0367C89.2478 95.9845 89.3523 95.9323 89.4567 95.854C89.5612 95.8017 89.6917 95.7495 89.7962 95.7234C89.9006 95.7234 90.0312 95.7234 90.1356 95.7234C90.2401 95.7234 90.3706 95.8279 90.4751 95.9323C90.6056 96.0629 90.6839 96.2195 90.7101 96.3762C90.7362 96.5329 90.7101 96.7156 90.6578 96.8984C90.5795 97.0812 90.4751 97.2379 90.3184 97.3945C90.2139 97.5251 90.0834 97.6034 89.9528 97.7079C89.8223 97.7862 89.6656 97.8645 89.5351 97.9167C89.3784 97.969 89.2478 97.9951 89.0912 98.0212L88.9084 97.5251C89.0389 97.5251 89.1956 97.499 89.3262 97.4467C89.4567 97.3945 89.5873 97.3423 89.6917 97.2901C89.7962 97.2379 89.9006 97.1595 89.9789 97.0812C90.0834 96.9506 90.1617 96.8462 90.1878 96.7417C90.1878 96.6373 90.1878 96.5329 90.0834 96.4545C90.0051 96.3762 89.9267 96.3501 89.8484 96.3501C89.7701 96.3501 89.6656 96.3501 89.5873 96.4284C89.5089 96.5067 89.4045 96.5329 89.3001 96.5851C89.1956 96.6373 89.0912 96.7156 88.9867 96.7679C88.8823 96.8201 88.7517 96.8723 88.6473 96.8984C88.5428 96.8984 88.4123 96.8984 88.3078 96.8984C88.2034 96.8723 88.0728 96.794 87.9684 96.6895C87.8378 96.559 87.7595 96.4284 87.7334 96.2717C87.7073 96.1151 87.7334 95.9584 87.7856 95.7756C87.8639 95.5928 87.9684 95.4362 88.1251 95.2795C88.2556 95.1229 88.4123 95.0184 88.5951 94.914C88.7778 94.8095 88.9345 94.7573 89.1173 94.7051L89.3001 95.2012V95.149Z" fill="white" style="fill:white;fill-opacity:1;"/>
<path d="M90.3706 93.0078C90.5273 92.8511 90.7101 92.7206 90.919 92.6422C91.1279 92.5639 91.3106 92.5117 91.5195 92.5378C91.7284 92.5639 91.9112 92.59 92.1201 92.6684C92.3029 92.7467 92.4856 92.8772 92.6423 93.0339C92.799 93.1906 92.9034 93.3734 92.9818 93.5561C93.0601 93.7389 93.0862 93.9478 93.0862 94.1567C93.0862 94.3656 93.034 94.5484 92.9556 94.7572C92.8773 94.94 92.7468 95.1228 92.564 95.2795C92.4073 95.4361 92.2245 95.5667 92.0156 95.645C91.8068 95.7234 91.624 95.7495 91.4151 95.7495C91.2062 95.7495 91.0234 95.6972 90.8145 95.6189C90.6318 95.5406 90.449 95.41 90.2923 95.2534C90.1356 95.0967 90.0312 94.9139 89.9529 94.7311C89.8745 94.5484 89.8484 94.3395 89.8745 94.1306C89.9006 93.9217 89.9268 93.7389 90.0312 93.53C90.1095 93.3472 90.2401 93.1645 90.4229 93.0078H90.3706ZM90.7101 93.3472C90.6056 93.4517 90.5273 93.5561 90.4751 93.6867C90.4229 93.8172 90.3968 93.9478 90.3968 94.0784C90.3968 94.2089 90.3968 94.3395 90.4751 94.47C90.5273 94.6006 90.6056 94.7311 90.7101 94.8356C90.8145 94.94 90.919 95.0184 91.0495 95.0706C91.1801 95.1228 91.3106 95.1489 91.4412 95.1489C91.5718 95.1489 91.7023 95.1489 91.8329 95.0967C91.9634 95.0445 92.0679 94.9922 92.1723 94.8878C92.2768 94.7834 92.3551 94.6789 92.4073 94.5484C92.4595 94.4178 92.4856 94.2872 92.4856 94.1567C92.4856 94.0261 92.4595 93.8956 92.4073 93.765C92.3551 93.6345 92.2768 93.5039 92.1723 93.3995C92.0679 93.295 91.9634 93.2167 91.8329 93.1645C91.7023 93.1122 91.5718 93.0861 91.4412 93.06C91.3106 93.0339 91.1801 93.06 91.0495 93.1122C90.919 93.1645 90.8145 93.2167 90.7101 93.3211V93.3472Z" fill="white" style="fill:white;fill-opacity:1;"/>
<path d="M93.0079 90.6578C93.2951 90.3967 93.6084 90.2661 93.8695 90.2661C94.1568 90.2661 94.3918 90.3967 94.6268 90.6317C94.8618 90.8928 94.9401 91.1539 94.914 91.4411C94.8879 91.7283 94.7051 91.9894 94.4179 92.2506L93.8956 92.6944L94.4962 93.3733L94.0523 93.765L92.0679 91.4672L93.034 90.6317L93.0079 90.6578ZM94.0784 91.9111C94.2351 91.7806 94.3395 91.6239 94.3656 91.4672C94.3656 91.3106 94.3395 91.1539 94.209 91.0233C94.0784 90.8667 93.9479 90.8144 93.7912 90.8144C93.6345 90.8144 93.4779 90.8928 93.3212 91.0494L92.799 91.4933L93.5562 92.3811L94.0784 91.9372V91.9111ZM94.2351 92.12L94.679 91.7544L95.9845 92.12L95.4884 92.5639L94.2612 92.1461L94.2351 92.12Z" fill="white" style="fill:white;fill-opacity:1;"/>
<path d="M94.4961 89.4044L94.94 89.0388L96.8461 91.4149L96.4022 91.7805L94.4961 89.4044Z" fill="white" style="fill:white;fill-opacity:1;"/>
<path d="M96.3501 87.9422L96.8201 87.5767L99.7184 89.2217L99.2223 89.5872L96.9245 88.2294L97.6034 90.7883L97.1073 91.1539L96.3501 87.9161V87.9422ZM97.0029 89.8483L98.4651 88.7517L98.7523 89.1433L97.2901 90.24L97.0029 89.8483Z" fill="white" style="fill:white;fill-opacity:1;"/>
<path d="M100.345 85.1223C100.528 84.9917 100.737 84.9134 100.946 84.8612C101.154 84.809 101.337 84.809 101.546 84.8612C101.729 84.8873 101.912 84.9656 102.094 85.0962C102.251 85.2006 102.408 85.3573 102.538 85.5401C102.669 85.7229 102.747 85.9056 102.773 86.1145C102.799 86.3234 102.799 86.5062 102.773 86.689C102.721 86.8717 102.643 87.0545 102.512 87.2373C102.382 87.4201 102.225 87.5506 102.042 87.6812L100.998 88.3601L99.3267 85.8012L100.397 85.0962L100.345 85.1223ZM101.755 87.2634C101.859 87.1851 101.964 87.1067 102.042 86.9762C102.121 86.8717 102.173 86.7412 102.199 86.6367C102.225 86.5323 102.199 86.3756 102.199 86.2451C102.173 86.1145 102.121 85.984 102.042 85.8534C101.964 85.7229 101.859 85.6184 101.755 85.5401C101.651 85.4617 101.52 85.4095 101.389 85.3834C101.259 85.3573 101.128 85.3573 100.998 85.3834C100.867 85.3834 100.737 85.4617 100.632 85.5401L100.084 85.9056L101.207 87.629L101.781 87.2373L101.755 87.2634Z" fill="white" style="fill:white;fill-opacity:1;"/>
<path d="M102.199 83.9471L102.695 83.6338L104.262 86.2449L103.766 86.5582L102.199 83.9471Z" fill="white" style="fill:white;fill-opacity:1;"/>
<path d="M105.776 82.8245C105.62 82.7984 105.463 82.7723 105.306 82.7984C105.15 82.7984 104.993 82.8767 104.862 82.929C104.732 83.0073 104.627 83.0856 104.549 83.1901C104.471 83.2945 104.418 83.4251 104.366 83.5556C104.34 83.6862 104.314 83.8167 104.34 83.9473C104.34 84.0779 104.392 84.2084 104.471 84.339C104.549 84.4695 104.627 84.574 104.758 84.6784C104.888 84.7828 104.993 84.8351 105.123 84.8612C105.254 84.9134 105.385 84.9134 105.541 84.8873C105.672 84.8873 105.802 84.8351 105.933 84.7567C106.063 84.6784 106.168 84.6001 106.272 84.4695C106.377 84.339 106.455 84.2084 106.507 84.0779L107.003 84.2606C106.951 84.3912 106.873 84.4956 106.795 84.6262C106.716 84.7567 106.612 84.8612 106.507 84.9656C106.403 85.0701 106.272 85.1484 106.168 85.2267C105.959 85.3312 105.776 85.4095 105.567 85.4356C105.358 85.4356 105.15 85.4356 104.967 85.3834C104.784 85.3312 104.575 85.2529 104.418 85.1223C104.262 84.9917 104.131 84.8351 104.001 84.6523C103.896 84.4695 103.818 84.2606 103.818 84.0517C103.818 83.8428 103.818 83.6601 103.87 83.4512C103.922 83.2423 104.027 83.0856 104.157 82.9029C104.288 82.7462 104.471 82.5895 104.653 82.4851C104.784 82.4067 104.915 82.3545 105.071 82.3284C105.202 82.2762 105.358 82.2762 105.515 82.2501C105.672 82.224 105.802 82.2501 105.933 82.2762L105.828 82.7984L105.776 82.8245ZM105.959 83.5556L106.403 83.2945L106.951 84.2867L106.507 84.5478L105.959 83.5556Z" fill="white" style="fill:white;fill-opacity:1;"/>
<path d="M106.324 81.6234L106.846 81.3623L108.23 84.0779L107.708 84.339L106.324 81.6234Z" fill="white" style="fill:white;fill-opacity:1;"/>
<path d="M107.265 81.1533L109.51 80.0828L109.719 80.5266L108.857 80.9444L109.954 83.2422L109.432 83.5033L108.335 81.2055L107.474 81.6233L107.265 81.1794V81.1533Z" fill="white" style="fill:white;fill-opacity:1;"/>
<path d="M110.581 79.6127L111.129 79.3777L113.557 81.6494L112.983 81.8844L111.077 80.0305L111.129 82.6938L110.581 82.9288V79.6127ZM110.737 81.5971L112.408 80.8921L112.591 81.336L110.92 82.041L110.737 81.5971Z" fill="white" style="fill:white;fill-opacity:1;"/>
<path d="M112.774 78.6989L113.322 78.49L114.236 80.8661L115.463 80.3961L115.646 80.8661L113.871 81.545L112.774 78.6989Z" fill="white" style="fill:white;fill-opacity:1;"/>
<path d="M138.233 207.035C173.506 207.035 202.1 178.441 202.1 143.167C202.1 107.894 173.506 79.2996 138.233 79.2996C102.959 79.2996 74.3647 107.894 74.3647 143.167C74.3647 178.441 102.959 207.035 138.233 207.035Z" stroke="white" style="stroke:white;stroke-opacity:1;" stroke-miterlimit="10"/>
</svg>
